STARTFONT 2.1
FONT -FontForge-IBM Plex Mono Medium-Medium-R-Normal--11-110-75-75-P-66-ISO10646-1
SIZE 11 75 75
FONTBOUNDINGBOX 10 17 -3 -3
COMMENT "Generated by fontforge, http://fontforge.sourceforge.net"
COMMENT "Copyright 2017 IBM Corp. All rights reserved."
STARTPROPERTIES 32
FOUNDRY "FontForge"
FAMILY_NAME "IBM Plex Mono Medium"
WEIGHT_NAME "Medium"
SLANT "R"
SETWIDTH_NAME "Normal"
ADD_STYLE_NAME ""
PIXEL_SIZE 11
POINT_SIZE 110
RESOLUTION_X 75
RESOLUTION_Y 75
SPACING "P"
AVERAGE_WIDTH 66
CHARSET_REGISTRY "ISO10646"
CHARSET_ENCODING "1"
FONTNAME_REGISTRY ""
CHARSET_COLLECTIONS "ISO8859-2 ISO8859-5 ISO8859-9 ISO8859-4 ISO10646-1"
FONT_NAME "IBMPlexMono-Medium"
FACE_NAME "IBM Plex Mono Medium"
COPYRIGHT "Copyright 2017 IBM Corp. All rights reserved."
FONT_VERSION "001.000"
FONT_ASCENT 8
FONT_DESCENT 3
UNDERLINE_POSITION 0
UNDERLINE_THICKNESS 1
X_HEIGHT 5
CAP_HEIGHT 7
RAW_ASCENT 791
RAW_DESCENT 209
NORM_SPACE 7
FIGURE_WIDTH 7
AVG_LOWERCASE_WIDTH 70
AVG_UPPERCASE_WIDTH 70
ENDPROPERTIES
CHARS 848
STARTCHAR .null.dup1
ENCODING 0
SWIDTH 0 0
DWIDTH 0 0
BBX 1 1 0 0
BITMAP
00
ENDCHAR
STARTCHAR uni000D
ENCODING 13
SWIDTH 600 0
DWIDTH 7 0
BBX 1 1 0 0
BITMAP
00
ENDCHAR
STARTCHAR space
ENCODING 32
SWIDTH 600 0
DWIDTH 7 0
BBX 1 1 0 0
BITMAP
00
ENDCHAR
STARTCHAR exclam
ENCODING 33
SWIDTH 600 0
DWIDTH 7 0
BBX 2 8 2 0
BITMAP
80
80
80
80
00
00
C0
C0
ENDCHAR
STARTCHAR quotedbl
ENCODING 34
SWIDTH 600 0
DWIDTH 7 0
BBX 4 3 1 6
BITMAP
B0
B0
B0
ENDCHAR
STARTCHAR numbersign
ENCODING 35
SWIDTH 600 0
DWIDTH 7 0
BBX 6 8 0 0
BITMAP
28
28
6C
28
68
D8
50
50
ENDCHAR
STARTCHAR dollar
ENCODING 36
SWIDTH 600 0
DWIDTH 7 0
BBX 6 9 0 0
BITMAP
20
78
E0
E0
70
38
24
F8
70
ENDCHAR
STARTCHAR percent
ENCODING 37
SWIDTH 600 0
DWIDTH 7 0
BBX 6 8 0 0
BITMAP
64
A4
A8
60
1C
54
54
8C
ENDCHAR
STARTCHAR ampersand
ENCODING 38
SWIDTH 600 0
DWIDTH 7 0
BBX 6 8 0 0
BITMAP
30
40
40
60
74
98
D8
64
ENDCHAR
STARTCHAR quotesingle
ENCODING 39
SWIDTH 600 0
DWIDTH 7 0
BBX 1 3 3 6
BITMAP
80
80
80
ENDCHAR
STARTCHAR parenleft
ENCODING 40
SWIDTH 600 0
DWIDTH 7 0
BBX 3 9 2 0
BITMAP
20
40
40
80
80
80
80
40
40
ENDCHAR
STARTCHAR parenright
ENCODING 41
SWIDTH 600 0
DWIDTH 7 0
BBX 3 9 2 0
BITMAP
80
C0
40
40
60
40
40
40
80
ENDCHAR
STARTCHAR asterisk
ENCODING 42
SWIDTH 600 0
DWIDTH 7 0
BBX 5 5 0 1
BITMAP
20
20
F8
30
58
ENDCHAR
STARTCHAR plus
ENCODING 43
SWIDTH 600 0
DWIDTH 7 0
BBX 5 5 0 1
BITMAP
20
20
F8
20
20
ENDCHAR
STARTCHAR comma
ENCODING 44
SWIDTH 600 0
DWIDTH 7 0
BBX 2 3 2 0
BITMAP
40
C0
80
ENDCHAR
STARTCHAR hyphen
ENCODING 45
SWIDTH 600 0
DWIDTH 7 0
BBX 4 1 1 3
BITMAP
F0
ENDCHAR
STARTCHAR period
ENCODING 46
SWIDTH 600 0
DWIDTH 7 0
BBX 2 2 2 0
BITMAP
C0
C0
ENDCHAR
STARTCHAR slash
ENCODING 47
SWIDTH 600 0
DWIDTH 7 0
BBX 5 10 1 -1
BITMAP
18
10
10
20
20
20
40
40
80
80
ENDCHAR
STARTCHAR zero
ENCODING 48
SWIDTH 600 0
DWIDTH 7 0
BBX 6 8 0 0
BITMAP
70
C8
8C
AC
8C
88
48
70
ENDCHAR
STARTCHAR one
ENCODING 49
SWIDTH 600 0
DWIDTH 7 0
BBX 5 8 0 0
BITMAP
30
50
90
10
10
10
10
78
ENDCHAR
STARTCHAR two
ENCODING 50
SWIDTH 600 0
DWIDTH 7 0
BBX 5 8 0 0
BITMAP
70
D8
08
08
10
20
C0
F8
ENDCHAR
STARTCHAR three
ENCODING 51
SWIDTH 600 0
DWIDTH 7 0
BBX 5 8 0 0
BITMAP
70
18
08
30
08
08
88
70
ENDCHAR
STARTCHAR four
ENCODING 52
SWIDTH 600 0
DWIDTH 7 0
BBX 6 8 0 0
BITMAP
18
38
28
48
48
FC
18
08
ENDCHAR
STARTCHAR five
ENCODING 53
SWIDTH 600 0
DWIDTH 7 0
BBX 6 8 0 0
BITMAP
F8
80
80
F8
08
0C
C8
70
ENDCHAR
STARTCHAR six
ENCODING 54
SWIDTH 600 0
DWIDTH 7 0
BBX 6 8 0 0
BITMAP
30
60
40
F8
88
8C
48
70
ENDCHAR
STARTCHAR seven
ENCODING 55
SWIDTH 600 0
DWIDTH 7 0
BBX 6 8 0 0
BITMAP
FC
88
08
10
10
30
20
20
ENDCHAR
STARTCHAR eight
ENCODING 56
SWIDTH 600 0
DWIDTH 7 0
BBX 6 8 0 0
BITMAP
78
C8
88
70
C8
8C
C8
70
ENDCHAR
STARTCHAR nine
ENCODING 57
SWIDTH 600 0
DWIDTH 7 0
BBX 6 8 0 0
BITMAP
70
C8
8C
CC
78
18
30
60
ENDCHAR
STARTCHAR colon
ENCODING 58
SWIDTH 600 0
DWIDTH 7 0
BBX 2 6 1 0
BITMAP
C0
C0
00
00
C0
C0
ENDCHAR
STARTCHAR semicolon
ENCODING 59
SWIDTH 600 0
DWIDTH 7 0
BBX 2 7 2 0
BITMAP
C0
40
00
00
40
C0
80
ENDCHAR
STARTCHAR less
ENCODING 60
SWIDTH 600 0
DWIDTH 7 0
BBX 5 6 1 1
BITMAP
08
30
C0
C0
70
18
ENDCHAR
STARTCHAR equal
ENCODING 61
SWIDTH 600 0
DWIDTH 7 0
BBX 5 3 0 3
BITMAP
F8
00
F8
ENDCHAR
STARTCHAR greater
ENCODING 62
SWIDTH 600 0
DWIDTH 7 0
BBX 5 6 1 1
BITMAP
80
E0
30
18
60
80
ENDCHAR
STARTCHAR question
ENCODING 63
SWIDTH 600 0
DWIDTH 7 0
BBX 5 8 0 0
BITMAP
70
C8
08
30
20
00
20
20
ENDCHAR
STARTCHAR at
ENCODING 64
SWIDTH 600 0
DWIDTH 7 0
BBX 6 9 0 0
BITMAP
70
C8
9C
AC
A4
AC
B0
40
70
ENDCHAR
STARTCHAR A
ENCODING 65
SWIDTH 600 0
DWIDTH 7 0
BBX 6 8 0 0
BITMAP
30
38
28
68
68
7C
C4
84
ENDCHAR
STARTCHAR B
ENCODING 66
SWIDTH 600 0
DWIDTH 7 0
BBX 5 8 1 0
BITMAP
F0
98
88
F0
98
88
98
F0
ENDCHAR
STARTCHAR C
ENCODING 67
SWIDTH 600 0
DWIDTH 7 0
BBX 5 8 0 0
BITMAP
78
48
80
80
80
80
48
30
ENDCHAR
STARTCHAR D
ENCODING 68
SWIDTH 600 0
DWIDTH 7 0
BBX 5 8 1 0
BITMAP
F0
98
88
88
88
88
98
E0
ENDCHAR
STARTCHAR E
ENCODING 69
SWIDTH 600 0
DWIDTH 7 0
BBX 5 8 1 0
BITMAP
F8
80
80
F0
80
80
80
F0
ENDCHAR
STARTCHAR F
ENCODING 70
SWIDTH 600 0
DWIDTH 7 0
BBX 5 8 1 0
BITMAP
F8
80
80
F0
80
80
80
80
ENDCHAR
STARTCHAR G
ENCODING 71
SWIDTH 600 0
DWIDTH 7 0
BBX 6 8 0 0
BITMAP
70
C8
80
80
9C
8C
4C
68
ENDCHAR
STARTCHAR H
ENCODING 72
SWIDTH 600 0
DWIDTH 7 0
BBX 5 8 1 0
BITMAP
88
88
88
F8
88
88
88
88
ENDCHAR
STARTCHAR I
ENCODING 73
SWIDTH 600 0
DWIDTH 7 0
BBX 5 8 1 0
BITMAP
F8
20
20
20
20
20
20
F0
ENDCHAR
STARTCHAR J
ENCODING 74
SWIDTH 600 0
DWIDTH 7 0
BBX 5 8 0 0
BITMAP
78
08
08
08
08
08
D8
70
ENDCHAR
STARTCHAR K
ENCODING 75
SWIDTH 600 0
DWIDTH 7 0
BBX 5 8 1 0
BITMAP
98
90
B0
E0
F0
90
98
88
ENDCHAR
STARTCHAR L
ENCODING 76
SWIDTH 600 0
DWIDTH 7 0
BBX 5 8 1 0
BITMAP
80
80
80
80
80
80
80
F8
ENDCHAR
STARTCHAR M
ENCODING 77
SWIDTH 600 0
DWIDTH 7 0
BBX 6 8 0 0
BITMAP
CC
CC
DC
BC
AC
AC
8C
88
ENDCHAR
STARTCHAR N
ENCODING 78
SWIDTH 600 0
DWIDTH 7 0
BBX 5 8 0 0
BITMAP
C8
C8
E8
A8
A8
98
98
88
ENDCHAR
STARTCHAR O
ENCODING 79
SWIDTH 600 0
DWIDTH 7 0
BBX 6 8 0 0
BITMAP
70
C8
8C
8C
8C
88
48
70
ENDCHAR
STARTCHAR P
ENCODING 80
SWIDTH 600 0
DWIDTH 7 0
BBX 5 8 1 0
BITMAP
F0
98
88
98
E0
80
80
80
ENDCHAR
STARTCHAR Q
ENCODING 81
SWIDTH 600 0
DWIDTH 7 0
BBX 6 10 0 -2
BITMAP
70
C8
8C
8C
8C
88
48
70
20
18
ENDCHAR
STARTCHAR R
ENCODING 82
SWIDTH 600 0
DWIDTH 7 0
BBX 5 8 1 0
BITMAP
F0
98
88
D8
F0
90
90
88
ENDCHAR
STARTCHAR S
ENCODING 83
SWIDTH 600 0
DWIDTH 7 0
BBX 6 8 0 0
BITMAP
78
C8
80
70
18
0C
C8
70
ENDCHAR
STARTCHAR T
ENCODING 84
SWIDTH 600 0
DWIDTH 7 0
BBX 6 8 0 0
BITMAP
FC
10
10
10
10
10
10
10
ENDCHAR
STARTCHAR U
ENCODING 85
SWIDTH 600 0
DWIDTH 7 0
BBX 6 8 0 0
BITMAP
8C
8C
8C
8C
8C
88
48
70
ENDCHAR
STARTCHAR V
ENCODING 86
SWIDTH 600 0
DWIDTH 7 0
BBX 6 8 0 0
BITMAP
C4
44
4C
48
68
28
38
30
ENDCHAR
STARTCHAR W
ENCODING 87
SWIDTH 600 0
DWIDTH 7 0
BBX 6 8 0 0
BITMAP
84
84
B4
B4
B4
EC
EC
4C
ENDCHAR
STARTCHAR X
ENCODING 88
SWIDTH 600 0
DWIDTH 7 0
BBX 6 8 0 0
BITMAP
C4
68
38
30
30
68
4C
84
ENDCHAR
STARTCHAR Y
ENCODING 89
SWIDTH 600 0
DWIDTH 7 0
BBX 6 8 0 0
BITMAP
C4
4C
68
38
30
10
10
10
ENDCHAR
STARTCHAR Z
ENCODING 90
SWIDTH 600 0
DWIDTH 7 0
BBX 5 8 0 0
BITMAP
F8
08
10
30
20
40
C0
F8
ENDCHAR
STARTCHAR bracketleft
ENCODING 91
SWIDTH 600 0
DWIDTH 7 0
BBX 3 10 2 -1
BITMAP
E0
80
80
80
80
80
80
80
80
E0
ENDCHAR
STARTCHAR backslash
ENCODING 92
SWIDTH 600 0
DWIDTH 7 0
BBX 4 9 1 0
BITMAP
80
80
40
40
20
20
20
10
10
ENDCHAR
STARTCHAR bracketright
ENCODING 93
SWIDTH 600 0
DWIDTH 7 0
BBX 3 10 1 -1
BITMAP
E0
20
20
20
20
20
20
20
20
E0
ENDCHAR
STARTCHAR asciicircum
ENCODING 94
SWIDTH 600 0
DWIDTH 7 0
BBX 5 5 0 3
BITMAP
30
70
48
88
80
ENDCHAR
STARTCHAR underscore
ENCODING 95
SWIDTH 600 0
DWIDTH 7 0
BBX 5 1 0 -2
BITMAP
F8
ENDCHAR
STARTCHAR grave
ENCODING 96
SWIDTH 600 0
DWIDTH 7 0
BBX 2 2 2 7
BITMAP
80
40
ENDCHAR
STARTCHAR a
ENCODING 97
SWIDTH 600 0
DWIDTH 7 0
BBX 5 6 0 0
BITMAP
70
18
78
C8
D8
60
ENDCHAR
STARTCHAR b
ENCODING 98
SWIDTH 600 0
DWIDTH 7 0
BBX 5 8 1 1
BITMAP
80
80
80
B0
88
88
88
B0
ENDCHAR
STARTCHAR c
ENCODING 99
SWIDTH 600 0
DWIDTH 7 0
BBX 5 6 1 0
BITMAP
70
80
80
80
D8
20
ENDCHAR
STARTCHAR d
ENCODING 100
SWIDTH 600 0
DWIDTH 7 0
BBX 5 8 0 1
BITMAP
08
08
08
68
88
88
88
68
ENDCHAR
STARTCHAR e
ENCODING 101
SWIDTH 600 0
DWIDTH 7 0
BBX 6 6 0 0
BITMAP
70
C8
FC
C0
58
30
ENDCHAR
STARTCHAR f
ENCODING 102
SWIDTH 600 0
DWIDTH 7 0
BBX 5 8 0 1
BITMAP
18
20
20
F8
20
20
20
78
ENDCHAR
STARTCHAR g
ENCODING 103
SWIDTH 600 0
DWIDTH 7 0
BBX 6 9 0 -2
BITMAP
08
70
C8
58
70
F8
4C
CC
78
ENDCHAR
STARTCHAR h
ENCODING 104
SWIDTH 600 0
DWIDTH 7 0
BBX 5 8 1 1
BITMAP
80
80
80
B0
98
88
88
88
ENDCHAR
STARTCHAR i
ENCODING 105
SWIDTH 600 0
DWIDTH 7 0
BBX 5 8 1 1
BITMAP
20
00
00
E0
20
20
20
F8
ENDCHAR
STARTCHAR j
ENCODING 106
SWIDTH 600 0
DWIDTH 7 0
BBX 4 11 1 -2
BITMAP
30
00
00
F0
10
10
10
10
10
30
E0
ENDCHAR
STARTCHAR k
ENCODING 107
SWIDTH 600 0
DWIDTH 7 0
BBX 5 8 1 1
BITMAP
80
80
80
98
E0
E0
90
98
ENDCHAR
STARTCHAR l
ENCODING 108
SWIDTH 600 0
DWIDTH 7 0
BBX 4 8 1 1
BITMAP
E0
20
20
20
20
20
20
F0
ENDCHAR
STARTCHAR m
ENCODING 109
SWIDTH 600 0
DWIDTH 7 0
BBX 6 5 0 1
BITMAP
F8
A4
A4
A4
A4
ENDCHAR
STARTCHAR n
ENCODING 110
SWIDTH 600 0
DWIDTH 7 0
BBX 5 5 1 1
BITMAP
B0
98
88
88
88
ENDCHAR
STARTCHAR o
ENCODING 111
SWIDTH 600 0
DWIDTH 7 0
BBX 6 6 0 0
BITMAP
70
C8
8C
88
58
30
ENDCHAR
STARTCHAR p
ENCODING 112
SWIDTH 600 0
DWIDTH 7 0
BBX 5 8 1 -2
BITMAP
B0
98
88
88
98
A0
80
80
ENDCHAR
STARTCHAR q
ENCODING 113
SWIDTH 600 0
DWIDTH 7 0
BBX 5 8 0 -2
BITMAP
68
C8
88
88
C8
28
08
08
ENDCHAR
STARTCHAR r
ENCODING 114
SWIDTH 600 0
DWIDTH 7 0
BBX 5 6 1 0
BITMAP
F8
60
60
60
60
F0
ENDCHAR
STARTCHAR s
ENCODING 115
SWIDTH 600 0
DWIDTH 7 0
BBX 5 6 0 0
BITMAP
78
C0
78
08
D8
30
ENDCHAR
STARTCHAR t
ENCODING 116
SWIDTH 600 0
DWIDTH 7 0
BBX 5 8 0 0
BITMAP
20
20
F8
20
20
20
20
38
ENDCHAR
STARTCHAR u
ENCODING 117
SWIDTH 600 0
DWIDTH 7 0
BBX 5 6 1 0
BITMAP
88
88
88
88
D8
40
ENDCHAR
STARTCHAR v
ENCODING 118
SWIDTH 600 0
DWIDTH 7 0
BBX 5 6 0 0
BITMAP
88
48
48
50
30
20
ENDCHAR
STARTCHAR w
ENCODING 119
SWIDTH 600 0
DWIDTH 7 0
BBX 6 6 0 0
BITMAP
94
B4
B4
EC
68
40
ENDCHAR
STARTCHAR x
ENCODING 120
SWIDTH 600 0
DWIDTH 7 0
BBX 5 5 0 1
BITMAP
C8
70
30
70
58
ENDCHAR
STARTCHAR y
ENCODING 121
SWIDTH 600 0
DWIDTH 7 0
BBX 5 8 0 -2
BITMAP
88
48
48
70
30
20
20
40
ENDCHAR
STARTCHAR z
ENCODING 122
SWIDTH 600 0
DWIDTH 7 0
BBX 5 6 1 0
BITMAP
F8
10
20
40
C0
F0
ENDCHAR
STARTCHAR braceleft
ENCODING 123
SWIDTH 600 0
DWIDTH 7 0
BBX 5 10 1 -1
BITMAP
38
40
20
20
E0
20
20
00
40
30
ENDCHAR
STARTCHAR bar
ENCODING 124
SWIDTH 600 0
DWIDTH 7 0
BBX 1 10 3 -1
BITMAP
80
80
80
80
80
80
80
80
80
80
ENDCHAR
STARTCHAR braceright
ENCODING 125
SWIDTH 600 0
DWIDTH 7 0
BBX 5 10 1 -1
BITMAP
E0
20
20
40
38
40
60
20
20
E0
ENDCHAR
STARTCHAR asciitilde
ENCODING 126
SWIDTH 600 0
DWIDTH 7 0
BBX 5 2 0 2
BITMAP
68
98
ENDCHAR
STARTCHAR uni00A0
ENCODING 160
SWIDTH 600 0
DWIDTH 7 0
BBX 1 1 0 0
BITMAP
00
ENDCHAR
STARTCHAR exclamdown
ENCODING 161
SWIDTH 600 0
DWIDTH 7 0
BBX 2 8 2 -2
BITMAP
C0
C0
00
00
80
80
80
80
ENDCHAR
STARTCHAR cent
ENCODING 162
SWIDTH 600 0
DWIDTH 7 0
BBX 4 8 1 0
BITMAP
20
60
F0
A0
A0
F0
70
20
ENDCHAR
STARTCHAR sterling
ENCODING 163
SWIDTH 600 0
DWIDTH 7 0
BBX 5 8 0 0
BITMAP
78
48
C0
40
F0
40
C0
78
ENDCHAR
STARTCHAR yen
ENCODING 165
SWIDTH 600 0
DWIDTH 7 0
BBX 6 8 0 0
BITMAP
C4
44
48
38
7C
10
10
7C
ENDCHAR
STARTCHAR brokenbar
ENCODING 166
SWIDTH 600 0
DWIDTH 7 0
BBX 1 10 3 -1
BITMAP
80
80
80
80
00
00
80
80
80
80
ENDCHAR
STARTCHAR section
ENCODING 167
SWIDTH 600 0
DWIDTH 7 0
BBX 5 10 1 -2
BITMAP
70
C0
C0
70
88
88
70
10
90
60
ENDCHAR
STARTCHAR dieresis
ENCODING 168
SWIDTH 600 0
DWIDTH 7 0
BBX 4 1 1 8
BITMAP
B0
ENDCHAR
STARTCHAR copyright
ENCODING 169
SWIDTH 600 0
DWIDTH 7 0
BBX 5 6 0 2
BITMAP
28
10
A0
40
80
B8
ENDCHAR
STARTCHAR ordfeminine
ENCODING 170
SWIDTH 600 0
DWIDTH 7 0
BBX 3 4 1 4
BITMAP
60
A0
A0
40
ENDCHAR
STARTCHAR guillemotleft
ENCODING 171
SWIDTH 600 0
DWIDTH 7 0
BBX 5 5 0 1
BITMAP
28
58
D0
58
28
ENDCHAR
STARTCHAR logicalnot
ENCODING 172
SWIDTH 600 0
DWIDTH 7 0
BBX 5 3 0 1
BITMAP
F8
08
08
ENDCHAR
STARTCHAR uni00AD
ENCODING 173
SWIDTH 600 0
DWIDTH 7 0
BBX 4 1 1 3
BITMAP
F0
ENDCHAR
STARTCHAR registered
ENCODING 174
SWIDTH 600 0
DWIDTH 7 0
BBX 3 3 1 6
BITMAP
60
E0
C0
ENDCHAR
STARTCHAR macron
ENCODING 175
SWIDTH 600 0
DWIDTH 7 0
BBX 3 1 2 7
BITMAP
E0
ENDCHAR
STARTCHAR degree
ENCODING 176
SWIDTH 600 0
DWIDTH 7 0
BBX 4 4 1 4
BITMAP
60
90
90
60
ENDCHAR
STARTCHAR plusminus
ENCODING 177
SWIDTH 600 0
DWIDTH 7 0
BBX 5 6 0 1
BITMAP
20
20
F8
20
00
F8
ENDCHAR
STARTCHAR twosuperior
ENCODING 178
SWIDTH 600 0
DWIDTH 7 0
BBX 3 4 2 5
BITMAP
E0
20
40
E0
ENDCHAR
STARTCHAR threesuperior
ENCODING 179
SWIDTH 600 0
DWIDTH 7 0
BBX 3 4 1 5
BITMAP
60
20
20
E0
ENDCHAR
STARTCHAR acute
ENCODING 180
SWIDTH 600 0
DWIDTH 7 0
BBX 2 2 3 7
BITMAP
40
80
ENDCHAR
STARTCHAR mu
ENCODING 181
SWIDTH 600 0
DWIDTH 7 0
BBX 5 8 1 -2
BITMAP
88
88
88
88
F8
80
80
80
ENDCHAR
STARTCHAR paragraph
ENCODING 182
SWIDTH 600 0
DWIDTH 7 0
BBX 5 10 0 -2
BITMAP
78
E8
E8
E8
68
28
28
28
28
08
ENDCHAR
STARTCHAR periodcentered
ENCODING 183
SWIDTH 600 0
DWIDTH 7 0
BBX 2 2 2 2
BITMAP
C0
C0
ENDCHAR
STARTCHAR cedilla
ENCODING 184
SWIDTH 600 0
DWIDTH 7 0
BBX 2 2 2 -1
BITMAP
80
40
ENDCHAR
STARTCHAR onesuperior
ENCODING 185
SWIDTH 600 0
DWIDTH 7 0
BBX 3 4 2 5
BITMAP
C0
40
40
E0
ENDCHAR
STARTCHAR ordmasculine
ENCODING 186
SWIDTH 600 0
DWIDTH 7 0
BBX 4 4 1 4
BITMAP
60
90
90
60
ENDCHAR
STARTCHAR guillemotright
ENCODING 187
SWIDTH 600 0
DWIDTH 7 0
BBX 6 5 0 1
BITMAP
80
58
2C
58
80
ENDCHAR
STARTCHAR onequarter
ENCODING 188
SWIDTH 600 0
DWIDTH 7 0
BBX 6 8 0 0
BITMAP
44
44
48
60
04
4C
5C
84
ENDCHAR
STARTCHAR onehalf
ENCODING 189
SWIDTH 600 0
DWIDTH 7 0
BBX 6 8 0 0
BITMAP
44
44
48
60
0C
44
48
88
ENDCHAR
STARTCHAR threequarters
ENCODING 190
SWIDTH 600 0
DWIDTH 7 0
BBX 6 8 0 0
BITMAP
E4
24
28
20
04
4C
5C
84
ENDCHAR
STARTCHAR questiondown
ENCODING 191
SWIDTH 600 0
DWIDTH 7 0
BBX 5 8 1 -2
BITMAP
20
20
00
20
E0
80
98
70
ENDCHAR
STARTCHAR Agrave
ENCODING 192
SWIDTH 600 0
DWIDTH 7 0
BBX 6 11 0 0
BITMAP
20
00
00
30
38
28
48
7C
4C
C4
84
ENDCHAR
STARTCHAR Aacute
ENCODING 193
SWIDTH 600 0
DWIDTH 7 0
BBX 6 11 0 0
BITMAP
10
10
00
30
38
28
48
7C
4C
C4
84
ENDCHAR
STARTCHAR Acircumflex
ENCODING 194
SWIDTH 600 0
DWIDTH 7 0
BBX 6 11 0 0
BITMAP
30
38
00
30
38
28
48
7C
4C
C4
84
ENDCHAR
STARTCHAR Atilde
ENCODING 195
SWIDTH 600 0
DWIDTH 7 0
BBX 6 10 0 1
BITMAP
38
00
30
30
28
68
48
7C
44
84
ENDCHAR
STARTCHAR Adieresis
ENCODING 196
SWIDTH 600 0
DWIDTH 7 0
BBX 6 10 0 1
BITMAP
68
00
30
30
28
68
48
7C
44
84
ENDCHAR
STARTCHAR Aring
ENCODING 197
SWIDTH 600 0
DWIDTH 7 0
BBX 6 11 0 1
BITMAP
30
28
30
10
30
38
28
48
7C
4C
C4
ENDCHAR
STARTCHAR AE
ENCODING 198
SWIDTH 600 0
DWIDTH 7 0
BBX 6 8 0 0
BITMAP
3C
30
50
5C
50
F0
90
9C
ENDCHAR
STARTCHAR Ccedilla
ENCODING 199
SWIDTH 600 0
DWIDTH 7 0
BBX 5 10 0 -1
BITMAP
78
48
80
80
80
80
48
30
30
30
ENDCHAR
STARTCHAR Egrave
ENCODING 200
SWIDTH 600 0
DWIDTH 7 0
BBX 5 11 1 0
BITMAP
40
20
00
F0
80
80
F8
80
80
C0
F0
ENDCHAR
STARTCHAR Eacute
ENCODING 201
SWIDTH 600 0
DWIDTH 7 0
BBX 5 10 1 0
BITMAP
20
00
F0
80
80
F8
80
80
C0
F0
ENDCHAR
STARTCHAR Ecircumflex
ENCODING 202
SWIDTH 600 0
DWIDTH 7 0
BBX 5 11 1 0
BITMAP
60
50
00
F0
80
80
F8
80
80
C0
F0
ENDCHAR
STARTCHAR Edieresis
ENCODING 203
SWIDTH 600 0
DWIDTH 7 0
BBX 4 10 1 1
BITMAP
D0
00
F0
C0
80
F0
C0
80
80
F0
ENDCHAR
STARTCHAR Igrave
ENCODING 204
SWIDTH 600 0
DWIDTH 7 0
BBX 4 11 1 0
BITMAP
40
20
00
F0
20
20
20
20
20
20
F0
ENDCHAR
STARTCHAR Iacute
ENCODING 205
SWIDTH 600 0
DWIDTH 7 0
BBX 4 11 1 0
BITMAP
20
20
00
F0
20
20
20
20
20
20
F0
ENDCHAR
STARTCHAR Icircumflex
ENCODING 206
SWIDTH 600 0
DWIDTH 7 0
BBX 4 11 1 0
BITMAP
60
50
00
F0
20
20
20
20
20
20
F0
ENDCHAR
STARTCHAR Idieresis
ENCODING 207
SWIDTH 600 0
DWIDTH 7 0
BBX 4 10 1 1
BITMAP
D0
00
F0
20
20
20
20
20
20
F0
ENDCHAR
STARTCHAR Eth
ENCODING 208
SWIDTH 600 0
DWIDTH 7 0
BBX 6 8 0 0
BITMAP
78
4C
44
F4
44
44
48
70
ENDCHAR
STARTCHAR Ntilde
ENCODING 209
SWIDTH 600 0
DWIDTH 7 0
BBX 5 10 0 1
BITMAP
70
00
C8
C8
E8
E8
A8
98
98
98
ENDCHAR
STARTCHAR Ograve
ENCODING 210
SWIDTH 600 0
DWIDTH 7 0
BBX 6 11 0 0
BITMAP
20
20
00
78
88
8C
8C
8C
88
58
30
ENDCHAR
STARTCHAR Oacute
ENCODING 211
SWIDTH 600 0
DWIDTH 7 0
BBX 6 11 0 0
BITMAP
10
20
00
78
88
8C
8C
8C
88
58
30
ENDCHAR
STARTCHAR Ocircumflex
ENCODING 212
SWIDTH 600 0
DWIDTH 7 0
BBX 6 11 0 0
BITMAP
30
70
00
78
88
8C
8C
8C
88
58
30
ENDCHAR
STARTCHAR Otilde
ENCODING 213
SWIDTH 600 0
DWIDTH 7 0
BBX 6 10 0 1
BITMAP
70
00
70
48
88
8C
8C
8C
C8
70
ENDCHAR
STARTCHAR Odieresis
ENCODING 214
SWIDTH 600 0
DWIDTH 7 0
BBX 6 10 0 1
BITMAP
58
00
70
48
88
8C
8C
8C
C8
70
ENDCHAR
STARTCHAR multiply
ENCODING 215
SWIDTH 600 0
DWIDTH 7 0
BBX 4 5 1 1
BITMAP
90
70
60
D0
80
ENDCHAR
STARTCHAR Oslash
ENCODING 216
SWIDTH 600 0
DWIDTH 7 0
BBX 6 8 0 1
BITMAP
38
58
98
9C
AC
EC
C8
F8
ENDCHAR
STARTCHAR Ugrave
ENCODING 217
SWIDTH 600 0
DWIDTH 7 0
BBX 6 11 0 0
BITMAP
20
20
00
8C
8C
8C
8C
88
88
58
30
ENDCHAR
STARTCHAR Uacute
ENCODING 218
SWIDTH 600 0
DWIDTH 7 0
BBX 6 11 0 0
BITMAP
10
20
00
8C
8C
8C
8C
88
88
58
30
ENDCHAR
STARTCHAR Ucircumflex
ENCODING 219
SWIDTH 600 0
DWIDTH 7 0
BBX 6 11 0 0
BITMAP
30
70
00
8C
8C
8C
8C
88
88
58
30
ENDCHAR
STARTCHAR Udieresis
ENCODING 220
SWIDTH 600 0
DWIDTH 7 0
BBX 6 10 0 1
BITMAP
58
00
88
8C
8C
8C
8C
88
C8
70
ENDCHAR
STARTCHAR Yacute
ENCODING 221
SWIDTH 600 0
DWIDTH 7 0
BBX 6 10 0 1
BITMAP
10
10
00
C4
4C
68
30
10
10
10
ENDCHAR
STARTCHAR Thorn
ENCODING 222
SWIDTH 600 0
DWIDTH 7 0
BBX 5 8 1 0
BITMAP
80
E0
98
88
98
F0
80
80
ENDCHAR
STARTCHAR germandbls
ENCODING 223
SWIDTH 600 0
DWIDTH 7 0
BBX 5 11 1 -2
BITMAP
E0
80
80
F8
90
A0
B0
88
08
18
20
ENDCHAR
STARTCHAR agrave
ENCODING 224
SWIDTH 600 0
DWIDTH 7 0
BBX 5 9 0 0
BITMAP
20
20
00
70
98
78
D8
D8
68
ENDCHAR
STARTCHAR aacute
ENCODING 225
SWIDTH 600 0
DWIDTH 7 0
BBX 5 9 0 0
BITMAP
10
20
00
70
98
78
D8
D8
68
ENDCHAR
STARTCHAR acircumflex
ENCODING 226
SWIDTH 600 0
DWIDTH 7 0
BBX 5 9 0 0
BITMAP
20
50
00
70
98
78
D8
D8
68
ENDCHAR
STARTCHAR atilde
ENCODING 227
SWIDTH 600 0
DWIDTH 7 0
BBX 5 8 0 0
BITMAP
70
00
70
98
18
F8
98
68
ENDCHAR
STARTCHAR adieresis
ENCODING 228
SWIDTH 600 0
DWIDTH 7 0
BBX 5 8 0 1
BITMAP
50
00
00
70
08
78
88
F8
ENDCHAR
STARTCHAR aring
ENCODING 229
SWIDTH 600 0
DWIDTH 7 0
BBX 5 10 0 0
BITMAP
20
50
70
00
70
18
78
D8
D8
68
ENDCHAR
STARTCHAR ae
ENCODING 230
SWIDTH 600 0
DWIDTH 7 0
BBX 6 6 0 0
BITMAP
7C
94
7C
90
B4
48
ENDCHAR
STARTCHAR ccedilla
ENCODING 231
SWIDTH 600 0
DWIDTH 7 0
BBX 5 8 1 -2
BITMAP
70
80
80
80
D8
20
30
20
ENDCHAR
STARTCHAR egrave
ENCODING 232
SWIDTH 600 0
DWIDTH 7 0
BBX 5 9 0 0
BITMAP
20
20
00
70
48
F8
C0
48
30
ENDCHAR
STARTCHAR eacute
ENCODING 233
SWIDTH 600 0
DWIDTH 7 0
BBX 5 9 0 0
BITMAP
10
20
00
70
48
F8
C0
48
30
ENDCHAR
STARTCHAR ecircumflex
ENCODING 234
SWIDTH 600 0
DWIDTH 7 0
BBX 5 9 0 0
BITMAP
30
50
00
70
48
F8
C0
48
30
ENDCHAR
STARTCHAR edieresis
ENCODING 235
SWIDTH 600 0
DWIDTH 7 0
BBX 5 8 0 1
BITMAP
58
00
00
78
88
F8
80
78
ENDCHAR
STARTCHAR igrave
ENCODING 236
SWIDTH 600 0
DWIDTH 7 0
BBX 5 9 1 0
BITMAP
20
20
00
E0
20
20
20
20
F8
ENDCHAR
STARTCHAR iacute
ENCODING 237
SWIDTH 600 0
DWIDTH 7 0
BBX 5 9 1 0
BITMAP
10
20
00
E0
20
20
20
20
F8
ENDCHAR
STARTCHAR icircumflex
ENCODING 238
SWIDTH 600 0
DWIDTH 7 0
BBX 5 9 1 0
BITMAP
20
50
00
E0
20
20
20
20
F8
ENDCHAR
STARTCHAR idieresis
ENCODING 239
SWIDTH 600 0
DWIDTH 7 0
BBX 5 8 1 1
BITMAP
58
00
00
E0
20
20
20
F8
ENDCHAR
STARTCHAR eth
ENCODING 240
SWIDTH 600 0
DWIDTH 7 0
BBX 6 8 0 1
BITMAP
70
30
18
78
8C
8C
88
78
ENDCHAR
STARTCHAR ntilde
ENCODING 241
SWIDTH 600 0
DWIDTH 7 0
BBX 5 8 1 0
BITMAP
70
00
B0
90
88
88
88
80
ENDCHAR
STARTCHAR ograve
ENCODING 242
SWIDTH 600 0
DWIDTH 7 0
BBX 5 9 0 0
BITMAP
20
20
00
70
48
88
88
48
70
ENDCHAR
STARTCHAR oacute
ENCODING 243
SWIDTH 600 0
DWIDTH 7 0
BBX 5 9 0 0
BITMAP
10
20
00
70
48
88
88
48
70
ENDCHAR
STARTCHAR ocircumflex
ENCODING 244
SWIDTH 600 0
DWIDTH 7 0
BBX 5 9 0 0
BITMAP
30
70
00
70
48
88
88
48
70
ENDCHAR
STARTCHAR otilde
ENCODING 245
SWIDTH 600 0
DWIDTH 7 0
BBX 5 8 0 0
BITMAP
70
00
70
48
88
88
48
70
ENDCHAR
STARTCHAR odieresis
ENCODING 246
SWIDTH 600 0
DWIDTH 7 0
BBX 6 8 0 1
BITMAP
58
00
00
78
88
8C
88
78
ENDCHAR
STARTCHAR divide
ENCODING 247
SWIDTH 600 0
DWIDTH 7 0
BBX 5 5 0 1
BITMAP
20
00
F8
00
20
ENDCHAR
STARTCHAR oslash
ENCODING 248
SWIDTH 600 0
DWIDTH 7 0
BBX 6 6 0 1
BITMAP
38
58
98
EC
C8
F0
ENDCHAR
STARTCHAR ugrave
ENCODING 249
SWIDTH 600 0
DWIDTH 7 0
BBX 5 9 1 0
BITMAP
40
20
00
80
88
88
88
D8
60
ENDCHAR
STARTCHAR uacute
ENCODING 250
SWIDTH 600 0
DWIDTH 7 0
BBX 5 9 1 0
BITMAP
20
20
00
80
88
88
88
D8
60
ENDCHAR
STARTCHAR ucircumflex
ENCODING 251
SWIDTH 600 0
DWIDTH 7 0
BBX 5 9 1 0
BITMAP
60
50
00
80
88
88
88
D8
60
ENDCHAR
STARTCHAR udieresis
ENCODING 252
SWIDTH 600 0
DWIDTH 7 0
BBX 5 8 1 1
BITMAP
D0
00
00
88
88
88
98
F8
ENDCHAR
STARTCHAR yacute
ENCODING 253
SWIDTH 600 0
DWIDTH 7 0
BBX 5 11 0 -2
BITMAP
10
20
00
88
C8
48
50
30
30
20
60
ENDCHAR
STARTCHAR thorn
ENCODING 254
SWIDTH 600 0
DWIDTH 7 0
BBX 5 10 1 -1
BITMAP
80
80
80
B0
88
88
88
B0
80
80
ENDCHAR
STARTCHAR ydieresis
ENCODING 255
SWIDTH 600 0
DWIDTH 7 0
BBX 5 11 0 -2
BITMAP
58
00
00
88
48
58
70
30
20
20
40
ENDCHAR
STARTCHAR Amacron
ENCODING 256
SWIDTH 600 0
DWIDTH 7 0
BBX 6 10 0 0
BITMAP
38
00
30
38
28
68
7C
4C
C4
84
ENDCHAR
STARTCHAR amacron
ENCODING 257
SWIDTH 600 0
DWIDTH 7 0
BBX 5 8 0 0
BITMAP
70
00
70
98
18
F8
98
68
ENDCHAR
STARTCHAR Abreve
ENCODING 258
SWIDTH 600 0
DWIDTH 7 0
BBX 6 11 0 0
BITMAP
48
38
10
30
38
28
48
7C
4C
C4
84
ENDCHAR
STARTCHAR abreve
ENCODING 259
SWIDTH 600 0
DWIDTH 7 0
BBX 5 9 0 0
BITMAP
40
70
00
70
98
78
D8
D8
68
ENDCHAR
STARTCHAR Aogonek
ENCODING 260
SWIDTH 600 0
DWIDTH 7 0
BBX 6 10 0 -1
BITMAP
30
38
28
68
68
7C
C4
84
00
0C
ENDCHAR
STARTCHAR aogonek
ENCODING 261
SWIDTH 600 0
DWIDTH 7 0
BBX 6 8 0 -2
BITMAP
70
18
78
C8
D8
68
08
0C
ENDCHAR
STARTCHAR Cacute
ENCODING 262
SWIDTH 600 0
DWIDTH 7 0
BBX 5 11 0 0
BITMAP
10
10
00
78
48
80
80
80
C0
78
30
ENDCHAR
STARTCHAR cacute
ENCODING 263
SWIDTH 600 0
DWIDTH 7 0
BBX 4 8 1 0
BITMAP
20
00
70
D0
80
80
D0
70
ENDCHAR
STARTCHAR Ccircumflex
ENCODING 264
SWIDTH 600 0
DWIDTH 7 0
BBX 5 11 0 0
BITMAP
30
48
00
78
48
80
80
80
C0
78
30
ENDCHAR
STARTCHAR ccircumflex
ENCODING 265
SWIDTH 600 0
DWIDTH 7 0
BBX 4 9 1 0
BITMAP
20
50
00
70
D0
80
80
D0
70
ENDCHAR
STARTCHAR Cdotaccent
ENCODING 266
SWIDTH 600 0
DWIDTH 7 0
BBX 5 10 0 1
BITMAP
30
00
30
48
80
80
80
80
C8
78
ENDCHAR
STARTCHAR cdotaccent
ENCODING 267
SWIDTH 600 0
DWIDTH 7 0
BBX 4 8 1 0
BITMAP
20
00
70
D0
80
80
D0
70
ENDCHAR
STARTCHAR Ccaron
ENCODING 268
SWIDTH 600 0
DWIDTH 7 0
BBX 5 11 0 0
BITMAP
48
30
00
78
48
80
80
80
C0
78
30
ENDCHAR
STARTCHAR ccaron
ENCODING 269
SWIDTH 600 0
DWIDTH 7 0
BBX 4 9 1 0
BITMAP
50
70
00
70
D0
80
80
D0
70
ENDCHAR
STARTCHAR Dcaron
ENCODING 270
SWIDTH 600 0
DWIDTH 7 0
BBX 5 11 1 0
BITMAP
90
60
00
F0
98
88
88
88
88
90
E0
ENDCHAR
STARTCHAR dcaron
ENCODING 271
SWIDTH 600 0
DWIDTH 7 0
BBX 6 8 0 1
BITMAP
1C
1C
18
F8
98
98
98
F8
ENDCHAR
STARTCHAR Dcroat
ENCODING 272
SWIDTH 600 0
DWIDTH 7 0
BBX 6 8 0 0
BITMAP
78
4C
44
F4
44
44
48
70
ENDCHAR
STARTCHAR dcroat
ENCODING 273
SWIDTH 600 0
DWIDTH 7 0
BBX 6 8 0 1
BITMAP
08
3C
08
68
88
88
88
68
ENDCHAR
STARTCHAR Emacron
ENCODING 274
SWIDTH 600 0
DWIDTH 7 0
BBX 5 10 1 0
BITMAP
70
00
F0
80
80
F8
80
80
C0
F0
ENDCHAR
STARTCHAR emacron
ENCODING 275
SWIDTH 600 0
DWIDTH 7 0
BBX 5 8 0 0
BITMAP
78
00
70
48
C8
F8
48
30
ENDCHAR
STARTCHAR Ebreve
ENCODING 276
SWIDTH 600 0
DWIDTH 7 0
BBX 5 11 1 0
BITMAP
10
70
20
F0
80
80
F8
80
80
C0
F0
ENDCHAR
STARTCHAR ebreve
ENCODING 277
SWIDTH 600 0
DWIDTH 7 0
BBX 5 9 0 0
BITMAP
40
70
00
70
48
F8
C0
48
30
ENDCHAR
STARTCHAR Edotaccent
ENCODING 278
SWIDTH 600 0
DWIDTH 7 0
BBX 4 10 1 1
BITMAP
20
00
F0
C0
80
F0
C0
80
80
F0
ENDCHAR
STARTCHAR edotaccent
ENCODING 279
SWIDTH 600 0
DWIDTH 7 0
BBX 5 8 0 0
BITMAP
20
00
70
48
C8
F8
48
30
ENDCHAR
STARTCHAR Eogonek
ENCODING 280
SWIDTH 600 0
DWIDTH 7 0
BBX 5 10 1 -1
BITMAP
F8
80
80
F0
80
80
80
F0
10
18
ENDCHAR
STARTCHAR eogonek
ENCODING 281
SWIDTH 600 0
DWIDTH 7 0
BBX 6 8 0 -2
BITMAP
70
C8
FC
C0
58
30
20
30
ENDCHAR
STARTCHAR Ecaron
ENCODING 282
SWIDTH 600 0
DWIDTH 7 0
BBX 5 11 1 0
BITMAP
50
70
20
F0
80
80
F8
80
80
C0
F0
ENDCHAR
STARTCHAR ecaron
ENCODING 283
SWIDTH 600 0
DWIDTH 7 0
BBX 5 9 0 0
BITMAP
58
30
00
70
48
F8
C0
48
30
ENDCHAR
STARTCHAR Gcircumflex
ENCODING 284
SWIDTH 600 0
DWIDTH 7 0
BBX 6 11 0 0
BITMAP
30
50
00
78
C8
80
98
8C
8C
4C
20
ENDCHAR
STARTCHAR gcircumflex
ENCODING 285
SWIDTH 600 0
DWIDTH 7 0
BBX 6 11 0 -2
BITMAP
30
70
00
78
48
C8
70
40
78
8C
78
ENDCHAR
STARTCHAR Gbreve
ENCODING 286
SWIDTH 600 0
DWIDTH 7 0
BBX 6 11 0 0
BITMAP
40
70
20
78
C8
80
98
8C
8C
4C
20
ENDCHAR
STARTCHAR gbreve
ENCODING 287
SWIDTH 600 0
DWIDTH 7 0
BBX 6 11 0 -2
BITMAP
40
70
00
78
48
C8
70
40
78
8C
78
ENDCHAR
STARTCHAR Gdotaccent
ENCODING 288
SWIDTH 600 0
DWIDTH 7 0
BBX 6 10 0 1
BITMAP
30
00
30
48
80
80
9C
8C
CC
6C
ENDCHAR
STARTCHAR gdotaccent
ENCODING 289
SWIDTH 600 0
DWIDTH 7 0
BBX 6 10 0 -1
BITMAP
20
08
70
48
C8
70
00
78
8C
78
ENDCHAR
STARTCHAR Gcommaaccent
ENCODING 290
SWIDTH 600 0
DWIDTH 7 0
BBX 6 10 0 -2
BITMAP
70
C8
80
80
9C
8C
4C
68
20
20
ENDCHAR
STARTCHAR gcommaaccent
ENCODING 291
SWIDTH 600 0
DWIDTH 7 0
BBX 6 11 0 -2
BITMAP
10
30
08
70
48
C8
70
40
78
8C
78
ENDCHAR
STARTCHAR Hcircumflex
ENCODING 292
SWIDTH 600 0
DWIDTH 7 0
BBX 5 11 1 0
BITMAP
60
50
00
88
88
88
F8
88
88
88
08
ENDCHAR
STARTCHAR hcircumflex
ENCODING 293
SWIDTH 600 0
DWIDTH 7 0
BBX 6 10 0 1
BITMAP
60
80
00
40
40
58
64
44
44
44
ENDCHAR
STARTCHAR Hbar
ENCODING 294
SWIDTH 600 0
DWIDTH 7 0
BBX 6 8 0 0
BITMAP
44
FC
44
7C
44
44
44
44
ENDCHAR
STARTCHAR hbar
ENCODING 295
SWIDTH 600 0
DWIDTH 7 0
BBX 6 8 0 1
BITMAP
40
F0
40
58
4C
44
44
44
ENDCHAR
STARTCHAR Itilde
ENCODING 296
SWIDTH 600 0
DWIDTH 7 0
BBX 4 10 1 1
BITMAP
70
00
F0
20
20
20
20
20
20
F0
ENDCHAR
STARTCHAR itilde
ENCODING 297
SWIDTH 600 0
DWIDTH 7 0
BBX 5 8 1 0
BITMAP
70
00
E0
20
20
20
20
F8
ENDCHAR
STARTCHAR Imacron
ENCODING 298
SWIDTH 600 0
DWIDTH 7 0
BBX 4 10 1 0
BITMAP
70
00
F0
20
20
20
20
20
20
F0
ENDCHAR
STARTCHAR imacron
ENCODING 299
SWIDTH 600 0
DWIDTH 7 0
BBX 5 8 1 0
BITMAP
70
00
E0
20
20
20
20
F8
ENDCHAR
STARTCHAR Ibreve
ENCODING 300
SWIDTH 600 0
DWIDTH 7 0
BBX 4 11 1 0
BITMAP
90
70
20
F0
20
20
20
20
20
20
F0
ENDCHAR
STARTCHAR ibreve
ENCODING 301
SWIDTH 600 0
DWIDTH 7 0
BBX 5 9 1 0
BITMAP
40
70
00
E0
20
20
20
20
F8
ENDCHAR
STARTCHAR Iogonek
ENCODING 302
SWIDTH 600 0
DWIDTH 7 0
BBX 5 10 1 -1
BITMAP
F8
20
20
20
20
20
20
F0
10
18
ENDCHAR
STARTCHAR iogonek
ENCODING 303
SWIDTH 600 0
DWIDTH 7 0
BBX 5 11 1 -2
BITMAP
20
00
00
E0
20
20
20
F8
18
18
08
ENDCHAR
STARTCHAR Idotaccent
ENCODING 304
SWIDTH 600 0
DWIDTH 7 0
BBX 4 10 1 1
BITMAP
20
00
F0
20
20
20
20
20
20
F0
ENDCHAR
STARTCHAR dotlessi
ENCODING 305
SWIDTH 600 0
DWIDTH 7 0
BBX 5 6 1 0
BITMAP
E0
20
20
20
70
F8
ENDCHAR
STARTCHAR IJ
ENCODING 306
SWIDTH 600 0
DWIDTH 7 0
BBX 5 8 1 0
BITMAP
88
88
88
88
88
18
98
60
ENDCHAR
STARTCHAR ij
ENCODING 307
SWIDTH 600 0
DWIDTH 7 0
BBX 5 11 0 -2
BITMAP
C8
00
00
C8
C8
C8
C8
C8
08
18
30
ENDCHAR
STARTCHAR Jcircumflex
ENCODING 308
SWIDTH 600 0
DWIDTH 7 0
BBX 5 11 0 0
BITMAP
30
48
08
78
08
08
08
08
08
D0
20
ENDCHAR
STARTCHAR jcircumflex
ENCODING 309
SWIDTH 600 0
DWIDTH 7 0
BBX 5 11 1 -2
BITMAP
30
08
00
F0
10
10
10
10
10
10
E0
ENDCHAR
STARTCHAR Kcommaaccent
ENCODING 310
SWIDTH 600 0
DWIDTH 7 0
BBX 5 10 1 -2
BITMAP
98
90
B0
E0
F0
90
98
88
20
20
ENDCHAR
STARTCHAR kcommaaccent
ENCODING 311
SWIDTH 600 0
DWIDTH 7 0
BBX 5 11 1 -3
BITMAP
80
80
80
98
E0
E0
90
98
00
20
20
ENDCHAR
STARTCHAR kgreenlandic
ENCODING 312
SWIDTH 600 0
DWIDTH 7 0
BBX 5 6 1 0
BITMAP
98
B0
E0
F0
98
88
ENDCHAR
STARTCHAR Lacute
ENCODING 313
SWIDTH 600 0
DWIDTH 7 0
BBX 5 11 1 0
BITMAP
40
80
80
80
80
80
80
80
80
C0
F8
ENDCHAR
STARTCHAR lacute
ENCODING 314
SWIDTH 600 0
DWIDTH 7 0
BBX 5 10 1 0
BITMAP
20
00
E0
20
20
20
20
20
20
F8
ENDCHAR
STARTCHAR Lcommaaccent
ENCODING 315
SWIDTH 600 0
DWIDTH 7 0
BBX 5 10 1 -2
BITMAP
80
80
80
80
80
80
80
F8
20
20
ENDCHAR
STARTCHAR lcommaaccent
ENCODING 316
SWIDTH 600 0
DWIDTH 7 0
BBX 4 11 1 -3
BITMAP
E0
20
20
20
20
20
20
F0
20
60
40
ENDCHAR
STARTCHAR Lcaron
ENCODING 317
SWIDTH 600 0
DWIDTH 7 0
BBX 5 8 1 1
BITMAP
B0
A0
80
80
80
80
80
F8
ENDCHAR
STARTCHAR lcaron
ENCODING 318
SWIDTH 600 0
DWIDTH 7 0
BBX 5 8 1 1
BITMAP
E8
28
20
20
20
20
20
F0
ENDCHAR
STARTCHAR Ldot
ENCODING 319
SWIDTH 600 0
DWIDTH 7 0
BBX 5 8 1 0
BITMAP
80
80
80
80
98
80
80
F8
ENDCHAR
STARTCHAR ldot
ENCODING 320
SWIDTH 600 0
DWIDTH 7 0
BBX 6 8 0 1
BITMAP
E0
20
20
20
20
2C
20
F8
ENDCHAR
STARTCHAR Lslash
ENCODING 321
SWIDTH 600 0
DWIDTH 7 0
BBX 5 8 0 0
BITMAP
40
40
40
70
C0
40
40
78
ENDCHAR
STARTCHAR lslash
ENCODING 322
SWIDTH 600 0
DWIDTH 7 0
BBX 4 8 1 1
BITMAP
E0
20
20
20
70
E0
20
F0
ENDCHAR
STARTCHAR Nacute
ENCODING 323
SWIDTH 600 0
DWIDTH 7 0
BBX 5 11 0 0
BITMAP
10
20
00
C8
C8
E8
A8
98
98
98
88
ENDCHAR
STARTCHAR nacute
ENCODING 324
SWIDTH 600 0
DWIDTH 7 0
BBX 5 8 1 0
BITMAP
20
00
B0
98
88
88
88
80
ENDCHAR
STARTCHAR Ncommaaccent
ENCODING 325
SWIDTH 600 0
DWIDTH 7 0
BBX 5 10 0 -2
BITMAP
C8
C8
E8
A8
A8
98
98
88
20
20
ENDCHAR
STARTCHAR ncommaaccent
ENCODING 326
SWIDTH 600 0
DWIDTH 7 0
BBX 5 8 1 -2
BITMAP
B0
98
88
88
88
00
20
40
ENDCHAR
STARTCHAR Ncaron
ENCODING 327
SWIDTH 600 0
DWIDTH 7 0
BBX 5 11 0 0
BITMAP
50
30
00
C8
C8
E8
A8
98
98
98
88
ENDCHAR
STARTCHAR ncaron
ENCODING 328
SWIDTH 600 0
DWIDTH 7 0
BBX 5 9 1 0
BITMAP
50
60
00
B0
98
88
88
88
80
ENDCHAR
STARTCHAR napostrophe
ENCODING 329
SWIDTH 600 0
DWIDTH 7 0
BBX 6 8 0 1
BITMAP
80
80
00
78
44
44
44
44
ENDCHAR
STARTCHAR Eng
ENCODING 330
SWIDTH 600 0
DWIDTH 7 0
BBX 5 10 0 -1
BITMAP
C8
C8
E8
A8
A8
98
98
88
08
78
ENDCHAR
STARTCHAR eng
ENCODING 331
SWIDTH 600 0
DWIDTH 7 0
BBX 5 8 1 -2
BITMAP
B0
98
88
88
88
08
08
70
ENDCHAR
STARTCHAR Omacron
ENCODING 332
SWIDTH 600 0
DWIDTH 7 0
BBX 6 10 0 0
BITMAP
78
00
78
88
8C
8C
8C
88
48
30
ENDCHAR
STARTCHAR omacron
ENCODING 333
SWIDTH 600 0
DWIDTH 7 0
BBX 5 8 0 0
BITMAP
78
00
70
48
88
88
48
70
ENDCHAR
STARTCHAR Obreve
ENCODING 334
SWIDTH 600 0
DWIDTH 7 0
BBX 6 11 0 0
BITMAP
40
70
20
78
88
8C
8C
8C
88
58
30
ENDCHAR
STARTCHAR obreve
ENCODING 335
SWIDTH 600 0
DWIDTH 7 0
BBX 5 9 0 0
BITMAP
40
70
00
70
48
88
88
48
70
ENDCHAR
STARTCHAR Ohungarumlaut
ENCODING 336
SWIDTH 600 0
DWIDTH 7 0
BBX 6 11 0 0
BITMAP
28
50
00
78
88
8C
8C
8C
88
58
30
ENDCHAR
STARTCHAR ohungarumlaut
ENCODING 337
SWIDTH 600 0
DWIDTH 7 0
BBX 5 9 0 0
BITMAP
28
50
00
70
48
88
88
48
70
ENDCHAR
STARTCHAR OE
ENCODING 338
SWIDTH 600 0
DWIDTH 7 0
BBX 6 8 0 0
BITMAP
7C
58
98
9C
98
98
58
3C
ENDCHAR
STARTCHAR oe
ENCODING 339
SWIDTH 600 0
DWIDTH 7 0
BBX 6 6 0 0
BITMAP
7C
94
9C
90
F4
48
ENDCHAR
STARTCHAR Racute
ENCODING 340
SWIDTH 600 0
DWIDTH 7 0
BBX 5 10 1 0
BITMAP
20
00
F8
88
88
F8
F0
90
98
88
ENDCHAR
STARTCHAR racute
ENCODING 341
SWIDTH 600 0
DWIDTH 7 0
BBX 5 9 1 0
BITMAP
10
20
00
E8
60
60
60
60
F0
ENDCHAR
STARTCHAR Rcommaaccent
ENCODING 342
SWIDTH 600 0
DWIDTH 7 0
BBX 5 10 1 -2
BITMAP
F0
98
88
D8
F0
90
90
88
20
20
ENDCHAR
STARTCHAR rcommaaccent
ENCODING 343
SWIDTH 600 0
DWIDTH 7 0
BBX 5 8 1 -2
BITMAP
F8
60
60
60
60
F0
40
40
ENDCHAR
STARTCHAR Rcaron
ENCODING 344
SWIDTH 600 0
DWIDTH 7 0
BBX 5 11 1 0
BITMAP
50
70
20
F8
88
88
F8
F0
90
98
88
ENDCHAR
STARTCHAR rcaron
ENCODING 345
SWIDTH 600 0
DWIDTH 7 0
BBX 5 9 1 0
BITMAP
50
30
00
E8
60
60
60
60
F0
ENDCHAR
STARTCHAR Sacute
ENCODING 346
SWIDTH 600 0
DWIDTH 7 0
BBX 6 11 0 0
BITMAP
10
20
00
78
80
C0
70
08
0C
D8
30
ENDCHAR
STARTCHAR sacute
ENCODING 347
SWIDTH 600 0
DWIDTH 7 0
BBX 5 9 0 0
BITMAP
10
20
00
70
48
70
18
88
70
ENDCHAR
STARTCHAR Scircumflex
ENCODING 348
SWIDTH 600 0
DWIDTH 7 0
BBX 6 11 0 0
BITMAP
30
70
00
78
80
C0
70
08
0C
D8
30
ENDCHAR
STARTCHAR scircumflex
ENCODING 349
SWIDTH 600 0
DWIDTH 7 0
BBX 5 9 0 0
BITMAP
30
70
00
70
48
70
18
88
70
ENDCHAR
STARTCHAR Scedilla
ENCODING 350
SWIDTH 600 0
DWIDTH 7 0
BBX 6 10 0 -1
BITMAP
78
C8
80
70
18
0C
C8
70
10
30
ENDCHAR
STARTCHAR scedilla
ENCODING 351
SWIDTH 600 0
DWIDTH 7 0
BBX 5 8 0 -2
BITMAP
78
C0
78
08
D8
30
10
30
ENDCHAR
STARTCHAR Scaron
ENCODING 352
SWIDTH 600 0
DWIDTH 7 0
BBX 6 11 0 0
BITMAP
50
30
20
78
80
C0
70
08
0C
D8
30
ENDCHAR
STARTCHAR scaron
ENCODING 353
SWIDTH 600 0
DWIDTH 7 0
BBX 5 9 0 0
BITMAP
58
30
00
70
48
70
18
88
70
ENDCHAR
STARTCHAR Tcommaaccent
ENCODING 354
SWIDTH 600 0
DWIDTH 7 0
BBX 6 10 0 -2
BITMAP
FC
10
10
10
10
10
10
10
10
20
ENDCHAR
STARTCHAR tcommaaccent
ENCODING 355
SWIDTH 600 0
DWIDTH 7 0
BBX 5 10 0 -2
BITMAP
20
20
F8
20
20
20
20
38
10
10
ENDCHAR
STARTCHAR Tcaron
ENCODING 356
SWIDTH 600 0
DWIDTH 7 0
BBX 6 10 0 1
BITMAP
28
30
10
FC
10
10
10
10
10
10
ENDCHAR
STARTCHAR tcaron
ENCODING 357
SWIDTH 600 0
DWIDTH 7 0
BBX 5 9 0 0
BITMAP
08
28
20
F8
20
20
20
20
38
ENDCHAR
STARTCHAR Tbar
ENCODING 358
SWIDTH 600 0
DWIDTH 7 0
BBX 6 8 0 0
BITMAP
FC
10
10
78
10
10
10
10
ENDCHAR
STARTCHAR tbar
ENCODING 359
SWIDTH 600 0
DWIDTH 7 0
BBX 5 8 0 0
BITMAP
20
20
F8
20
60
70
20
38
ENDCHAR
STARTCHAR Utilde
ENCODING 360
SWIDTH 600 0
DWIDTH 7 0
BBX 6 10 0 1
BITMAP
70
00
88
8C
8C
8C
8C
88
C8
70
ENDCHAR
STARTCHAR utilde
ENCODING 361
SWIDTH 600 0
DWIDTH 7 0
BBX 5 8 1 0
BITMAP
70
00
80
88
88
88
98
60
ENDCHAR
STARTCHAR Umacron
ENCODING 362
SWIDTH 600 0
DWIDTH 7 0
BBX 6 10 0 0
BITMAP
78
00
8C
8C
8C
8C
88
88
48
30
ENDCHAR
STARTCHAR umacron
ENCODING 363
SWIDTH 600 0
DWIDTH 7 0
BBX 5 8 1 0
BITMAP
70
00
80
88
88
88
98
60
ENDCHAR
STARTCHAR Ubreve
ENCODING 364
SWIDTH 600 0
DWIDTH 7 0
BBX 6 11 0 0
BITMAP
40
70
00
8C
8C
8C
8C
88
88
58
30
ENDCHAR
STARTCHAR ubreve
ENCODING 365
SWIDTH 600 0
DWIDTH 7 0
BBX 5 9 1 0
BITMAP
90
70
00
80
88
88
88
D8
60
ENDCHAR
STARTCHAR Uring
ENCODING 366
SWIDTH 600 0
DWIDTH 7 0
BBX 6 11 0 1
BITMAP
30
50
70
00
8C
8C
8C
8C
88
88
58
ENDCHAR
STARTCHAR uring
ENCODING 367
SWIDTH 600 0
DWIDTH 7 0
BBX 5 10 1 0
BITMAP
60
50
70
00
88
88
88
88
D8
60
ENDCHAR
STARTCHAR Uhungarumlaut
ENCODING 368
SWIDTH 600 0
DWIDTH 7 0
BBX 6 11 0 0
BITMAP
28
50
00
8C
8C
8C
8C
88
88
58
30
ENDCHAR
STARTCHAR uhungarumlaut
ENCODING 369
SWIDTH 600 0
DWIDTH 7 0
BBX 5 9 1 0
BITMAP
70
50
00
80
88
88
88
D8
60
ENDCHAR
STARTCHAR Uogonek
ENCODING 370
SWIDTH 600 0
DWIDTH 7 0
BBX 6 10 0 -1
BITMAP
8C
8C
8C
8C
8C
88
48
70
00
30
ENDCHAR
STARTCHAR uogonek
ENCODING 371
SWIDTH 600 0
DWIDTH 7 0
BBX 5 8 1 -2
BITMAP
88
88
88
88
D8
40
00
18
ENDCHAR
STARTCHAR Wcircumflex
ENCODING 372
SWIDTH 600 0
DWIDTH 7 0
BBX 6 11 0 0
BITMAP
30
38
00
84
84
B4
B4
A4
EC
EC
40
ENDCHAR
STARTCHAR wcircumflex
ENCODING 373
SWIDTH 600 0
DWIDTH 7 0
BBX 6 9 0 0
BITMAP
30
38
00
94
B4
B4
EC
68
48
ENDCHAR
STARTCHAR Ycircumflex
ENCODING 374
SWIDTH 600 0
DWIDTH 7 0
BBX 6 10 0 1
BITMAP
30
38
00
C4
4C
68
30
10
10
10
ENDCHAR
STARTCHAR ycircumflex
ENCODING 375
SWIDTH 600 0
DWIDTH 7 0
BBX 5 11 0 -2
BITMAP
30
50
00
88
C8
48
50
30
30
20
60
ENDCHAR
STARTCHAR Ydieresis
ENCODING 376
SWIDTH 600 0
DWIDTH 7 0
BBX 6 10 0 1
BITMAP
68
00
84
4C
48
38
30
10
10
10
ENDCHAR
STARTCHAR Zacute
ENCODING 377
SWIDTH 600 0
DWIDTH 7 0
BBX 5 11 0 0
BITMAP
10
20
00
F8
18
10
20
60
40
C0
F8
ENDCHAR
STARTCHAR zacute
ENCODING 378
SWIDTH 600 0
DWIDTH 7 0
BBX 4 8 1 0
BITMAP
20
00
F0
10
20
40
C0
F0
ENDCHAR
STARTCHAR Zdotaccent
ENCODING 379
SWIDTH 600 0
DWIDTH 7 0
BBX 5 10 0 1
BITMAP
20
00
F8
08
10
10
20
40
C0
F8
ENDCHAR
STARTCHAR zdotaccent
ENCODING 380
SWIDTH 600 0
DWIDTH 7 0
BBX 4 8 1 0
BITMAP
20
00
F0
10
30
60
C0
F0
ENDCHAR
STARTCHAR Zcaron
ENCODING 381
SWIDTH 600 0
DWIDTH 7 0
BBX 5 11 0 0
BITMAP
50
30
20
F8
18
10
20
60
40
C0
F8
ENDCHAR
STARTCHAR zcaron
ENCODING 382
SWIDTH 600 0
DWIDTH 7 0
BBX 4 9 1 0
BITMAP
50
60
00
F0
10
20
40
C0
F0
ENDCHAR
STARTCHAR uni018F
ENCODING 399
SWIDTH 600 0
DWIDTH 7 0
BBX 6 8 0 0
BITMAP
70
C8
0C
0C
FC
88
48
70
ENDCHAR
STARTCHAR florin
ENCODING 402
SWIDTH 600 0
DWIDTH 7 0
BBX 7 10 0 -1
BITMAP
0E
18
18
7C
10
10
10
30
30
E0
ENDCHAR
STARTCHAR Ohorn
ENCODING 416
SWIDTH 600 0
DWIDTH 7 0
BBX 6 9 0 0
BITMAP
04
78
C8
8C
8C
8C
88
48
70
ENDCHAR
STARTCHAR ohorn
ENCODING 417
SWIDTH 600 0
DWIDTH 7 0
BBX 6 6 0 1
BITMAP
04
78
C8
8C
8C
78
ENDCHAR
STARTCHAR Uhorn
ENCODING 431
SWIDTH 600 0
DWIDTH 7 0
BBX 6 9 0 1
BITMAP
04
8C
8C
8C
8C
8C
88
88
78
ENDCHAR
STARTCHAR uhorn
ENCODING 432
SWIDTH 600 0
DWIDTH 7 0
BBX 6 7 1 0
BITMAP
04
8C
88
88
88
98
68
ENDCHAR
STARTCHAR Aringacute
ENCODING 506
SWIDTH 600 0
DWIDTH 7 0
BBX 6 13 0 1
BITMAP
10
10
30
28
30
10
30
38
68
48
7C
44
C4
ENDCHAR
STARTCHAR aringacute
ENCODING 507
SWIDTH 600 0
DWIDTH 7 0
BBX 5 11 0 0
BITMAP
10
00
20
10
30
20
D8
08
F8
98
78
ENDCHAR
STARTCHAR AEacute
ENCODING 508
SWIDTH 600 0
DWIDTH 7 0
BBX 6 11 0 0
BITMAP
08
08
00
3C
30
50
5C
70
D0
90
8C
ENDCHAR
STARTCHAR aeacute
ENCODING 509
SWIDTH 600 0
DWIDTH 7 0
BBX 6 9 0 0
BITMAP
10
10
00
6C
B4
7C
F0
B4
48
ENDCHAR
STARTCHAR Oslashacute
ENCODING 510
SWIDTH 600 0
DWIDTH 7 0
BBX 6 11 0 0
BITMAP
10
20
00
78
98
9C
AC
EC
C8
D8
B0
ENDCHAR
STARTCHAR oslashacute
ENCODING 511
SWIDTH 600 0
DWIDTH 7 0
BBX 5 9 0 1
BITMAP
10
20
00
78
58
98
E8
C8
F0
ENDCHAR
STARTCHAR Scommaaccent
ENCODING 536
SWIDTH 600 0
DWIDTH 7 0
BBX 6 10 0 -2
BITMAP
78
C8
80
70
18
0C
C8
70
20
20
ENDCHAR
STARTCHAR scommaaccent
ENCODING 537
SWIDTH 600 0
DWIDTH 7 0
BBX 5 8 0 -2
BITMAP
78
C0
78
08
D8
30
20
20
ENDCHAR
STARTCHAR uni021A
ENCODING 538
SWIDTH 600 0
DWIDTH 7 0
BBX 6 10 0 -2
BITMAP
FC
10
10
10
10
10
10
10
10
20
ENDCHAR
STARTCHAR uni021B
ENCODING 539
SWIDTH 600 0
DWIDTH 7 0
BBX 5 10 0 -2
BITMAP
20
20
F8
20
20
20
20
38
10
10
ENDCHAR
STARTCHAR uni0237
ENCODING 567
SWIDTH 600 0
DWIDTH 7 0
BBX 4 8 1 -2
BITMAP
F0
10
10
10
10
10
10
E0
ENDCHAR
STARTCHAR uni0259
ENCODING 601
SWIDTH 600 0
DWIDTH 7 0
BBX 6 6 0 0
BITMAP
70
08
FC
C8
58
30
ENDCHAR
STARTCHAR uni02BB
ENCODING 699
SWIDTH 600 0
DWIDTH 7 0
BBX 2 2 2 7
BITMAP
40
C0
ENDCHAR
STARTCHAR uni02BC
ENCODING 700
SWIDTH 600 0
DWIDTH 7 0
BBX 1 2 2 7
BITMAP
80
80
ENDCHAR
STARTCHAR circumflex
ENCODING 710
SWIDTH 600 0
DWIDTH 7 0
BBX 3 2 1 7
BITMAP
60
E0
ENDCHAR
STARTCHAR caron
ENCODING 711
SWIDTH 600 0
DWIDTH 7 0
BBX 4 2 1 7
BITMAP
90
60
ENDCHAR
STARTCHAR breve
ENCODING 728
SWIDTH 600 0
DWIDTH 7 0
BBX 3 2 1 7
BITMAP
80
E0
ENDCHAR
STARTCHAR dotaccent
ENCODING 729
SWIDTH 600 0
DWIDTH 7 0
BBX 2 1 2 7
BITMAP
C0
ENDCHAR
STARTCHAR ring
ENCODING 730
SWIDTH 600 0
DWIDTH 7 0
BBX 3 3 2 7
BITMAP
E0
A0
E0
ENDCHAR
STARTCHAR ogonek
ENCODING 731
SWIDTH 600 0
DWIDTH 7 0
BBX 2 3 1 -2
BITMAP
40
80
C0
ENDCHAR
STARTCHAR tilde
ENCODING 732
SWIDTH 600 0
DWIDTH 7 0
BBX 4 1 1 7
BITMAP
F0
ENDCHAR
STARTCHAR hungarumlaut
ENCODING 733
SWIDTH 600 0
DWIDTH 7 0
BBX 3 2 2 7
BITMAP
C0
A0
ENDCHAR
STARTCHAR uni0300
ENCODING 768
SWIDTH 0 0
DWIDTH 0 0
BBX 2 2 -1 7
BITMAP
80
40
ENDCHAR
STARTCHAR uni0301
ENCODING 769
SWIDTH 0 0
DWIDTH 0 0
BBX 2 2 -1 7
BITMAP
40
80
ENDCHAR
STARTCHAR uni0302
ENCODING 770
SWIDTH 0 0
DWIDTH 0 0
BBX 3 2 -2 7
BITMAP
60
A0
ENDCHAR
STARTCHAR uni0303
ENCODING 771
SWIDTH 0 0
DWIDTH 0 0
BBX 3 1 -2 7
BITMAP
E0
ENDCHAR
STARTCHAR uni0304
ENCODING 772
SWIDTH 0 0
DWIDTH 0 0
BBX 3 1 -2 7
BITMAP
E0
ENDCHAR
STARTCHAR uni0306
ENCODING 774
SWIDTH 0 0
DWIDTH 0 0
BBX 3 2 -2 7
BITMAP
80
E0
ENDCHAR
STARTCHAR uni0307
ENCODING 775
SWIDTH 0 0
DWIDTH 0 0
BBX 2 1 -1 7
BITMAP
C0
ENDCHAR
STARTCHAR uni0308
ENCODING 776
SWIDTH 0 0
DWIDTH 0 0
BBX 4 1 -2 8
BITMAP
B0
ENDCHAR
STARTCHAR uni0309
ENCODING 777
SWIDTH 0 0
DWIDTH 0 0
BBX 2 2 -1 7
BITMAP
C0
40
ENDCHAR
STARTCHAR uni030A
ENCODING 778
SWIDTH 0 0
DWIDTH 0 0
BBX 3 3 -1 7
BITMAP
C0
A0
C0
ENDCHAR
STARTCHAR uni030B
ENCODING 779
SWIDTH 0 0
DWIDTH 0 0
BBX 4 2 -2 7
BITMAP
50
A0
ENDCHAR
STARTCHAR uni030C
ENCODING 780
SWIDTH 0 0
DWIDTH 0 0
BBX 3 2 -2 7
BITMAP
A0
60
ENDCHAR
STARTCHAR uni0312
ENCODING 786
SWIDTH 0 0
DWIDTH 0 0
BBX 2 2 -1 7
BITMAP
40
C0
ENDCHAR
STARTCHAR uni0315
ENCODING 789
SWIDTH 0 0
DWIDTH 0 0
BBX 1 2 0 7
BITMAP
80
80
ENDCHAR
STARTCHAR uni031B
ENCODING 795
SWIDTH 0 0
DWIDTH 0 0
BBX 2 2 -1 6
BITMAP
40
C0
ENDCHAR
STARTCHAR uni0323
ENCODING 803
SWIDTH 0 0
DWIDTH 0 0
BBX 2 1 -1 -1
BITMAP
C0
ENDCHAR
STARTCHAR uni0326
ENCODING 806
SWIDTH 0 0
DWIDTH 0 0
BBX 2 2 -1 -2
BITMAP
C0
80
ENDCHAR
STARTCHAR uni0327
ENCODING 807
SWIDTH 0 0
DWIDTH 0 0
BBX 2 3 0 -2
BITMAP
80
C0
80
ENDCHAR
STARTCHAR uni0328
ENCODING 808
SWIDTH 0 0
DWIDTH 0 0
BBX 2 2 -2 -2
BITMAP
80
C0
ENDCHAR
STARTCHAR pi
ENCODING 960
SWIDTH 600 0
DWIDTH 7 0
BBX 6 6 0 0
BITMAP
FC
4C
4C
4C
4C
40
ENDCHAR
STARTCHAR uni0400
ENCODING 1024
SWIDTH 600 0
DWIDTH 7 0
BBX 5 11 1 0
BITMAP
40
20
00
F0
80
80
F8
80
80
C0
F0
ENDCHAR
STARTCHAR uni0401
ENCODING 1025
SWIDTH 600 0
DWIDTH 7 0
BBX 4 10 1 1
BITMAP
D0
00
F0
C0
80
F0
C0
80
80
F0
ENDCHAR
STARTCHAR uni0402
ENCODING 1026
SWIDTH 600 0
DWIDTH 7 0
BBX 6 10 0 -2
BITMAP
F8
20
20
3C
24
24
24
24
04
18
ENDCHAR
STARTCHAR uni0403
ENCODING 1027
SWIDTH 600 0
DWIDTH 7 0
BBX 4 10 1 1
BITMAP
20
20
00
F0
80
80
80
80
80
80
ENDCHAR
STARTCHAR uni0404
ENCODING 1028
SWIDTH 600 0
DWIDTH 7 0
BBX 5 8 0 0
BITMAP
78
48
80
F0
80
80
48
30
ENDCHAR
STARTCHAR uni0405
ENCODING 1029
SWIDTH 600 0
DWIDTH 7 0
BBX 6 8 0 0
BITMAP
78
C8
80
70
18
0C
C8
70
ENDCHAR
STARTCHAR uni0406
ENCODING 1030
SWIDTH 600 0
DWIDTH 7 0
BBX 5 8 1 0
BITMAP
F8
20
20
20
20
20
20
F0
ENDCHAR
STARTCHAR uni0407
ENCODING 1031
SWIDTH 600 0
DWIDTH 7 0
BBX 4 10 1 1
BITMAP
D0
00
F0
20
20
20
20
20
20
F0
ENDCHAR
STARTCHAR uni0408
ENCODING 1032
SWIDTH 600 0
DWIDTH 7 0
BBX 5 8 0 0
BITMAP
78
08
08
08
08
08
D8
70
ENDCHAR
STARTCHAR uni0409
ENCODING 1033
SWIDTH 600 0
DWIDTH 7 0
BBX 6 8 0 0
BITMAP
70
50
50
5C
54
54
54
9C
ENDCHAR
STARTCHAR uni040A
ENCODING 1034
SWIDTH 600 0
DWIDTH 7 0
BBX 6 8 0 0
BITMAP
B0
B0
B0
F8
B4
B4
B4
B8
ENDCHAR
STARTCHAR uni040B
ENCODING 1035
SWIDTH 600 0
DWIDTH 7 0
BBX 6 8 0 0
BITMAP
F8
20
20
3C
24
24
24
24
ENDCHAR
STARTCHAR uni040C
ENCODING 1036
SWIDTH 600 0
DWIDTH 7 0
BBX 5 11 1 0
BITMAP
20
20
00
98
90
90
E0
B0
90
98
08
ENDCHAR
STARTCHAR uni040D
ENCODING 1037
SWIDTH 600 0
DWIDTH 7 0
BBX 5 11 0 0
BITMAP
20
20
00
88
98
98
A8
E8
C8
C8
80
ENDCHAR
STARTCHAR uni040E
ENCODING 1038
SWIDTH 600 0
DWIDTH 7 0
BBX 6 11 0 0
BITMAP
40
70
00
8C
C8
48
70
30
30
20
40
ENDCHAR
STARTCHAR uni040F
ENCODING 1039
SWIDTH 600 0
DWIDTH 7 0
BBX 5 9 1 0
BITMAP
88
88
88
88
88
88
88
F0
20
ENDCHAR
STARTCHAR uni0410
ENCODING 1040
SWIDTH 600 0
DWIDTH 7 0
BBX 6 8 0 0
BITMAP
30
38
28
68
68
7C
C4
84
ENDCHAR
STARTCHAR uni0411
ENCODING 1041
SWIDTH 600 0
DWIDTH 7 0
BBX 5 8 1 0
BITMAP
F0
80
80
F0
98
88
98
F0
ENDCHAR
STARTCHAR uni0412
ENCODING 1042
SWIDTH 600 0
DWIDTH 7 0
BBX 5 8 1 0
BITMAP
F0
98
88
F0
98
88
98
F0
ENDCHAR
STARTCHAR uni0413
ENCODING 1043
SWIDTH 600 0
DWIDTH 7 0
BBX 4 8 1 0
BITMAP
F0
80
80
80
80
80
80
80
ENDCHAR
STARTCHAR uni0414
ENCODING 1044
SWIDTH 600 0
DWIDTH 7 0
BBX 6 9 0 0
BITMAP
3C
2C
2C
6C
6C
6C
4C
FC
84
ENDCHAR
STARTCHAR uni0415
ENCODING 1045
SWIDTH 600 0
DWIDTH 7 0
BBX 5 8 1 0
BITMAP
F8
80
80
F0
80
80
80
F0
ENDCHAR
STARTCHAR uni0416
ENCODING 1046
SWIDTH 600 0
DWIDTH 7 0
BBX 6 8 0 0
BITMAP
94
D4
54
78
54
D4
94
94
ENDCHAR
STARTCHAR uni0417
ENCODING 1047
SWIDTH 600 0
DWIDTH 7 0
BBX 5 8 0 0
BITMAP
70
98
08
30
08
08
98
70
ENDCHAR
STARTCHAR uni0418
ENCODING 1048
SWIDTH 600 0
DWIDTH 7 0
BBX 5 8 0 0
BITMAP
88
98
98
B8
E8
E8
C8
88
ENDCHAR
STARTCHAR uni0419
ENCODING 1049
SWIDTH 600 0
DWIDTH 7 0
BBX 5 11 0 0
BITMAP
40
70
00
88
98
98
A8
E8
C8
C8
80
ENDCHAR
STARTCHAR uni041A
ENCODING 1050
SWIDTH 600 0
DWIDTH 7 0
BBX 5 8 1 0
BITMAP
98
90
90
B0
E0
90
90
88
ENDCHAR
STARTCHAR uni041B
ENCODING 1051
SWIDTH 600 0
DWIDTH 7 0
BBX 6 8 0 0
BITMAP
3C
24
24
64
64
64
44
84
ENDCHAR
STARTCHAR uni041C
ENCODING 1052
SWIDTH 600 0
DWIDTH 7 0
BBX 6 8 0 0
BITMAP
CC
CC
DC
BC
AC
AC
8C
88
ENDCHAR
STARTCHAR uni041D
ENCODING 1053
SWIDTH 600 0
DWIDTH 7 0
BBX 5 8 1 0
BITMAP
88
88
88
F8
88
88
88
88
ENDCHAR
STARTCHAR uni041E
ENCODING 1054
SWIDTH 600 0
DWIDTH 7 0
BBX 6 8 0 0
BITMAP
70
C8
8C
8C
8C
88
48
70
ENDCHAR
STARTCHAR uni041F
ENCODING 1055
SWIDTH 600 0
DWIDTH 7 0
BBX 5 8 1 0
BITMAP
F8
88
88
88
88
88
88
88
ENDCHAR
STARTCHAR uni0420
ENCODING 1056
SWIDTH 600 0
DWIDTH 7 0
BBX 5 8 1 0
BITMAP
F0
98
88
98
E0
80
80
80
ENDCHAR
STARTCHAR uni0421
ENCODING 1057
SWIDTH 600 0
DWIDTH 7 0
BBX 5 8 0 0
BITMAP
78
48
80
80
80
80
48
30
ENDCHAR
STARTCHAR uni0422
ENCODING 1058
SWIDTH 600 0
DWIDTH 7 0
BBX 6 8 0 0
BITMAP
FC
10
10
10
10
10
10
10
ENDCHAR
STARTCHAR uni0423
ENCODING 1059
SWIDTH 600 0
DWIDTH 7 0
BBX 6 8 0 0
BITMAP
8C
C8
48
50
30
30
20
60
ENDCHAR
STARTCHAR uni0424
ENCODING 1060
SWIDTH 600 0
DWIDTH 7 0
BBX 6 8 0 1
BITMAP
10
78
D4
94
94
94
7C
10
ENDCHAR
STARTCHAR uni0425
ENCODING 1061
SWIDTH 600 0
DWIDTH 7 0
BBX 6 8 0 0
BITMAP
C4
68
38
30
30
68
4C
84
ENDCHAR
STARTCHAR uni0426
ENCODING 1062
SWIDTH 600 0
DWIDTH 7 0
BBX 6 9 0 0
BITMAP
88
88
88
88
88
88
88
FC
04
ENDCHAR
STARTCHAR uni0427
ENCODING 1063
SWIDTH 600 0
DWIDTH 7 0
BBX 5 8 0 0
BITMAP
88
88
88
C8
78
08
08
08
ENDCHAR
STARTCHAR uni0428
ENCODING 1064
SWIDTH 600 0
DWIDTH 7 0
BBX 6 8 0 0
BITMAP
A4
A4
A4
A4
A4
A4
A4
F8
ENDCHAR
STARTCHAR uni0429
ENCODING 1065
SWIDTH 600 0
DWIDTH 7 0
BBX 6 9 0 0
BITMAP
A8
A8
A8
A8
A8
A8
A8
FC
04
ENDCHAR
STARTCHAR uni042A
ENCODING 1066
SWIDTH 600 0
DWIDTH 7 0
BBX 6 8 0 0
BITMAP
E0
60
60
78
64
64
64
38
ENDCHAR
STARTCHAR uni042B
ENCODING 1067
SWIDTH 600 0
DWIDTH 7 0
BBX 6 8 0 0
BITMAP
84
84
84
E4
B4
94
B4
E0
ENDCHAR
STARTCHAR uni042C
ENCODING 1068
SWIDTH 600 0
DWIDTH 7 0
BBX 5 8 1 0
BITMAP
80
80
80
F0
98
88
98
F0
ENDCHAR
STARTCHAR uni042D
ENCODING 1069
SWIDTH 600 0
DWIDTH 7 0
BBX 6 8 0 0
BITMAP
70
C8
08
3C
0C
08
D8
70
ENDCHAR
STARTCHAR uni042E
ENCODING 1070
SWIDTH 600 0
DWIDTH 7 0
BBX 6 8 0 0
BITMAP
B8
AC
A4
E4
A4
A4
A8
98
ENDCHAR
STARTCHAR uni042F
ENCODING 1071
SWIDTH 600 0
DWIDTH 7 0
BBX 5 8 0 0
BITMAP
78
C8
88
48
38
68
48
88
ENDCHAR
STARTCHAR uni0430
ENCODING 1072
SWIDTH 600 0
DWIDTH 7 0
BBX 5 6 0 0
BITMAP
70
18
78
C8
D8
60
ENDCHAR
STARTCHAR uni0431
ENCODING 1073
SWIDTH 600 0
DWIDTH 7 0
BBX 6 8 0 1
BITMAP
38
40
C0
F8
88
8C
88
78
ENDCHAR
STARTCHAR uni0432
ENCODING 1074
SWIDTH 600 0
DWIDTH 7 0
BBX 5 6 1 0
BITMAP
F0
98
F0
C8
D8
F0
ENDCHAR
STARTCHAR uni0433
ENCODING 1075
SWIDTH 600 0
DWIDTH 7 0
BBX 4 6 1 0
BITMAP
F0
80
80
80
80
80
ENDCHAR
STARTCHAR uni0434
ENCODING 1076
SWIDTH 600 0
DWIDTH 7 0
BBX 6 7 0 -1
BITMAP
7C
6C
6C
4C
6C
FC
84
ENDCHAR
STARTCHAR uni0435
ENCODING 1077
SWIDTH 600 0
DWIDTH 7 0
BBX 6 6 0 0
BITMAP
70
C8
FC
C0
58
30
ENDCHAR
STARTCHAR uni0436
ENCODING 1078
SWIDTH 600 0
DWIDTH 7 0
BBX 6 5 0 1
BITMAP
94
54
78
5C
94
ENDCHAR
STARTCHAR uni0437
ENCODING 1079
SWIDTH 600 0
DWIDTH 7 0
BBX 5 6 0 0
BITMAP
70
88
30
08
D8
30
ENDCHAR
STARTCHAR uni0438
ENCODING 1080
SWIDTH 600 0
DWIDTH 7 0
BBX 5 6 1 0
BITMAP
98
B8
A8
C8
C8
80
ENDCHAR
STARTCHAR uni0439
ENCODING 1081
SWIDTH 600 0
DWIDTH 7 0
BBX 5 9 1 0
BITMAP
10
70
00
90
98
A8
C8
C8
80
ENDCHAR
STARTCHAR uni043A
ENCODING 1082
SWIDTH 600 0
DWIDTH 7 0
BBX 5 6 1 0
BITMAP
98
90
E0
F0
90
88
ENDCHAR
STARTCHAR uni043B
ENCODING 1083
SWIDTH 600 0
DWIDTH 7 0
BBX 6 6 0 0
BITMAP
7C
6C
6C
6C
4C
80
ENDCHAR
STARTCHAR uni043C
ENCODING 1084
SWIDTH 600 0
DWIDTH 7 0
BBX 6 6 0 0
BITMAP
CC
DC
FC
AC
8C
80
ENDCHAR
STARTCHAR uni043D
ENCODING 1085
SWIDTH 600 0
DWIDTH 7 0
BBX 5 6 1 0
BITMAP
88
88
F8
C8
88
80
ENDCHAR
STARTCHAR uni043E
ENCODING 1086
SWIDTH 600 0
DWIDTH 7 0
BBX 6 6 0 0
BITMAP
70
C8
8C
88
58
30
ENDCHAR
STARTCHAR uni043F
ENCODING 1087
SWIDTH 600 0
DWIDTH 7 0
BBX 5 6 1 0
BITMAP
F8
88
88
88
88
80
ENDCHAR
STARTCHAR uni0440
ENCODING 1088
SWIDTH 600 0
DWIDTH 7 0
BBX 5 8 1 -2
BITMAP
B0
98
88
88
98
A0
80
80
ENDCHAR
STARTCHAR uni0441
ENCODING 1089
SWIDTH 600 0
DWIDTH 7 0
BBX 5 6 1 0
BITMAP
70
80
80
80
D8
20
ENDCHAR
STARTCHAR uni0442
ENCODING 1090
SWIDTH 600 0
DWIDTH 7 0
BBX 5 5 0 1
BITMAP
F8
20
20
20
20
ENDCHAR
STARTCHAR uni0443
ENCODING 1091
SWIDTH 600 0
DWIDTH 7 0
BBX 5 8 0 -2
BITMAP
88
48
48
70
30
20
20
40
ENDCHAR
STARTCHAR uni0444
ENCODING 1092
SWIDTH 600 0
DWIDTH 7 0
BBX 6 10 0 -1
BITMAP
20
20
78
AC
A4
A4
A4
F8
20
20
ENDCHAR
STARTCHAR uni0445
ENCODING 1093
SWIDTH 600 0
DWIDTH 7 0
BBX 5 5 0 1
BITMAP
C8
70
30
70
58
ENDCHAR
STARTCHAR uni0446
ENCODING 1094
SWIDTH 600 0
DWIDTH 7 0
BBX 6 7 0 -1
BITMAP
88
88
88
88
D8
FC
04
ENDCHAR
STARTCHAR uni0447
ENCODING 1095
SWIDTH 600 0
DWIDTH 7 0
BBX 5 6 0 0
BITMAP
88
88
D8
78
08
08
ENDCHAR
STARTCHAR uni0448
ENCODING 1096
SWIDTH 600 0
DWIDTH 7 0
BBX 6 6 0 0
BITMAP
A4
A4
A4
A4
BC
F8
ENDCHAR
STARTCHAR uni0449
ENCODING 1097
SWIDTH 600 0
DWIDTH 7 0
BBX 6 7 0 -1
BITMAP
A4
A4
A4
A4
BC
FC
04
ENDCHAR
STARTCHAR uni044A
ENCODING 1098
SWIDTH 600 0
DWIDTH 7 0
BBX 6 6 0 0
BITMAP
E0
60
7C
64
6C
38
ENDCHAR
STARTCHAR uni044B
ENCODING 1099
SWIDTH 600 0
DWIDTH 7 0
BBX 6 6 0 0
BITMAP
84
84
E4
94
A4
C0
ENDCHAR
STARTCHAR uni044C
ENCODING 1100
SWIDTH 600 0
DWIDTH 7 0
BBX 5 6 1 0
BITMAP
80
80
F0
88
D8
F0
ENDCHAR
STARTCHAR uni044D
ENCODING 1101
SWIDTH 600 0
DWIDTH 7 0
BBX 5 6 1 0
BITMAP
70
98
38
18
D0
60
ENDCHAR
STARTCHAR uni044E
ENCODING 1102
SWIDTH 600 0
DWIDTH 7 0
BBX 6 6 0 0
BITMAP
98
AC
E4
A4
B8
10
ENDCHAR
STARTCHAR uni044F
ENCODING 1103
SWIDTH 600 0
DWIDTH 7 0
BBX 5 6 0 0
BITMAP
78
C8
D8
78
48
88
ENDCHAR
STARTCHAR uni0450
ENCODING 1104
SWIDTH 600 0
DWIDTH 7 0
BBX 5 9 0 0
BITMAP
20
20
00
70
48
F8
C0
48
30
ENDCHAR
STARTCHAR uni0451
ENCODING 1105
SWIDTH 600 0
DWIDTH 7 0
BBX 5 8 0 1
BITMAP
58
00
00
78
88
F8
80
78
ENDCHAR
STARTCHAR uni0452
ENCODING 1106
SWIDTH 600 0
DWIDTH 7 0
BBX 6 11 0 -2
BITMAP
40
F0
40
58
4C
44
44
44
04
0C
38
ENDCHAR
STARTCHAR uni0453
ENCODING 1107
SWIDTH 600 0
DWIDTH 7 0
BBX 4 9 1 0
BITMAP
20
20
00
F0
80
80
80
80
80
ENDCHAR
STARTCHAR uni0454
ENCODING 1108
SWIDTH 600 0
DWIDTH 7 0
BBX 4 6 1 0
BITMAP
70
80
E0
80
D0
20
ENDCHAR
STARTCHAR uni0455
ENCODING 1109
SWIDTH 600 0
DWIDTH 7 0
BBX 5 6 0 0
BITMAP
78
C0
78
08
D8
30
ENDCHAR
STARTCHAR uni0456
ENCODING 1110
SWIDTH 600 0
DWIDTH 7 0
BBX 5 8 1 1
BITMAP
20
00
00
E0
20
20
20
F8
ENDCHAR
STARTCHAR uni0457
ENCODING 1111
SWIDTH 600 0
DWIDTH 7 0
BBX 5 8 1 1
BITMAP
58
00
00
E0
20
20
20
F8
ENDCHAR
STARTCHAR uni0458
ENCODING 1112
SWIDTH 600 0
DWIDTH 7 0
BBX 4 11 1 -2
BITMAP
30
00
00
F0
10
10
10
10
10
30
E0
ENDCHAR
STARTCHAR uni0459
ENCODING 1113
SWIDTH 600 0
DWIDTH 7 0
BBX 6 6 0 0
BITMAP
70
50
5C
54
D4
08
ENDCHAR
STARTCHAR uni045A
ENCODING 1114
SWIDTH 600 0
DWIDTH 7 0
BBX 6 6 0 0
BITMAP
B0
B0
F8
B4
BC
18
ENDCHAR
STARTCHAR uni045B
ENCODING 1115
SWIDTH 600 0
DWIDTH 7 0
BBX 6 8 0 1
BITMAP
40
F0
40
58
4C
44
44
44
ENDCHAR
STARTCHAR uni045C
ENCODING 1116
SWIDTH 600 0
DWIDTH 7 0
BBX 5 9 1 0
BITMAP
20
20
00
88
90
E0
F0
90
88
ENDCHAR
STARTCHAR uni045D
ENCODING 1117
SWIDTH 600 0
DWIDTH 7 0
BBX 5 9 1 0
BITMAP
40
20
00
90
98
A8
C8
C8
80
ENDCHAR
STARTCHAR uni045E
ENCODING 1118
SWIDTH 600 0
DWIDTH 7 0
BBX 5 11 0 -2
BITMAP
40
70
00
88
C8
48
50
30
30
20
60
ENDCHAR
STARTCHAR uni045F
ENCODING 1119
SWIDTH 600 0
DWIDTH 7 0
BBX 5 7 1 -1
BITMAP
88
88
88
88
98
F0
20
ENDCHAR
STARTCHAR uni0472
ENCODING 1138
SWIDTH 600 0
DWIDTH 7 0
BBX 6 8 0 0
BITMAP
70
C8
8C
FC
8C
88
48
70
ENDCHAR
STARTCHAR uni0473
ENCODING 1139
SWIDTH 600 0
DWIDTH 7 0
BBX 6 6 0 0
BITMAP
70
C8
FC
C8
58
30
ENDCHAR
STARTCHAR uni0490
ENCODING 1168
SWIDTH 600 0
DWIDTH 7 0
BBX 4 10 1 0
BITMAP
10
10
F0
80
80
80
80
80
80
80
ENDCHAR
STARTCHAR uni0491
ENCODING 1169
SWIDTH 600 0
DWIDTH 7 0
BBX 4 7 1 0
BITMAP
10
F0
C0
80
80
80
80
ENDCHAR
STARTCHAR uni0492
ENCODING 1170
SWIDTH 600 0
DWIDTH 7 0
BBX 5 8 0 0
BITMAP
78
40
40
F0
40
40
40
40
ENDCHAR
STARTCHAR uni0493
ENCODING 1171
SWIDTH 600 0
DWIDTH 7 0
BBX 5 6 0 0
BITMAP
78
40
F0
40
40
40
ENDCHAR
STARTCHAR uni0494
ENCODING 1172
SWIDTH 600 0
DWIDTH 7 0
BBX 5 10 1 -2
BITMAP
F0
80
80
F0
98
88
88
88
18
30
ENDCHAR
STARTCHAR uni0495
ENCODING 1173
SWIDTH 600 0
DWIDTH 7 0
BBX 5 8 1 -2
BITMAP
F0
80
F0
D8
88
88
18
30
ENDCHAR
STARTCHAR uni0496
ENCODING 1174
SWIDTH 600 0
DWIDTH 7 0
BBX 7 9 0 0
BITMAP
B4
B4
7C
78
78
F4
B4
B6
02
ENDCHAR
STARTCHAR uni0497
ENCODING 1175
SWIDTH 600 0
DWIDTH 7 0
BBX 6 6 0 0
BITMAP
94
54
78
5C
94
84
ENDCHAR
STARTCHAR uni0498
ENCODING 1176
SWIDTH 600 0
DWIDTH 7 0
BBX 5 9 0 0
BITMAP
70
98
08
30
08
08
98
70
20
ENDCHAR
STARTCHAR uni0499
ENCODING 1177
SWIDTH 600 0
DWIDTH 7 0
BBX 5 7 0 -1
BITMAP
70
88
30
08
D8
70
20
ENDCHAR
STARTCHAR uni049A
ENCODING 1178
SWIDTH 600 0
DWIDTH 7 0
BBX 6 9 0 0
BITMAP
88
98
90
F0
F0
90
98
8C
04
ENDCHAR
STARTCHAR uni049B
ENCODING 1179
SWIDTH 600 0
DWIDTH 7 0
BBX 5 7 1 -1
BITMAP
98
90
E0
B0
90
08
08
ENDCHAR
STARTCHAR uni049C
ENCODING 1180
SWIDTH 600 0
DWIDTH 7 0
BBX 6 8 0 0
BITMAP
88
88
A8
B0
F0
B8
88
84
ENDCHAR
STARTCHAR uni049D
ENCODING 1181
SWIDTH 600 0
DWIDTH 7 0
BBX 5 6 0 0
BITMAP
88
E8
F0
F0
88
80
ENDCHAR
STARTCHAR uni04A0
ENCODING 1184
SWIDTH 600 0
DWIDTH 7 0
BBX 6 8 0 0
BITMAP
E4
64
68
78
78
68
6C
24
ENDCHAR
STARTCHAR uni04A1
ENCODING 1185
SWIDTH 600 0
DWIDTH 7 0
BBX 6 6 0 0
BITMAP
E4
68
78
68
6C
04
ENDCHAR
STARTCHAR uni04A2
ENCODING 1186
SWIDTH 600 0
DWIDTH 7 0
BBX 6 9 0 0
BITMAP
88
88
88
D8
F8
88
88
8C
04
ENDCHAR
STARTCHAR uni04A3
ENCODING 1187
SWIDTH 600 0
DWIDTH 7 0
BBX 6 7 0 -1
BITMAP
88
88
F8
C8
88
8C
04
ENDCHAR
STARTCHAR uni04A4
ENCODING 1188
SWIDTH 600 0
DWIDTH 7 0
BBX 6 8 0 0
BITMAP
9C
90
90
F0
90
90
90
90
ENDCHAR
STARTCHAR uni04A5
ENCODING 1189
SWIDTH 600 0
DWIDTH 7 0
BBX 6 5 0 1
BITMAP
9C
90
F0
90
90
ENDCHAR
STARTCHAR uni04AA
ENCODING 1194
SWIDTH 600 0
DWIDTH 7 0
BBX 5 9 0 0
BITMAP
78
48
80
80
80
80
48
30
30
ENDCHAR
STARTCHAR uni04AB
ENCODING 1195
SWIDTH 600 0
DWIDTH 7 0
BBX 5 7 1 -1
BITMAP
70
80
80
80
D8
20
20
ENDCHAR
STARTCHAR uni04AE
ENCODING 1198
SWIDTH 600 0
DWIDTH 7 0
BBX 6 8 0 0
BITMAP
C4
4C
68
38
30
10
10
10
ENDCHAR
STARTCHAR uni04AF
ENCODING 1199
SWIDTH 600 0
DWIDTH 7 0
BBX 5 8 0 -2
BITMAP
88
48
50
70
30
20
20
20
ENDCHAR
STARTCHAR uni04B0
ENCODING 1200
SWIDTH 600 0
DWIDTH 7 0
BBX 6 8 0 0
BITMAP
C4
4C
68
38
30
78
10
10
ENDCHAR
STARTCHAR uni04B1
ENCODING 1201
SWIDTH 600 0
DWIDTH 7 0
BBX 5 8 0 -2
BITMAP
88
48
50
70
30
78
30
20
ENDCHAR
STARTCHAR uni04B2
ENCODING 1202
SWIDTH 600 0
DWIDTH 7 0
BBX 6 9 0 0
BITMAP
C4
48
38
30
30
78
48
84
04
ENDCHAR
STARTCHAR uni04B3
ENCODING 1203
SWIDTH 600 0
DWIDTH 7 0
BBX 6 7 0 -1
BITMAP
C8
70
30
70
58
0C
04
ENDCHAR
STARTCHAR uni04B6
ENCODING 1206
SWIDTH 600 0
DWIDTH 7 0
BBX 6 9 0 0
BITMAP
88
88
88
88
78
08
08
0C
04
ENDCHAR
STARTCHAR uni04B7
ENCODING 1207
SWIDTH 600 0
DWIDTH 7 0
BBX 6 7 0 -1
BITMAP
88
88
D8
78
08
0C
04
ENDCHAR
STARTCHAR uni04B8
ENCODING 1208
SWIDTH 600 0
DWIDTH 7 0
BBX 5 8 0 0
BITMAP
88
88
A8
E8
78
28
08
08
ENDCHAR
STARTCHAR uni04B9
ENCODING 1209
SWIDTH 600 0
DWIDTH 7 0
BBX 5 6 0 0
BITMAP
88
88
F8
78
08
08
ENDCHAR
STARTCHAR uni04BA
ENCODING 1210
SWIDTH 600 0
DWIDTH 7 0
BBX 5 8 1 0
BITMAP
80
80
80
F0
88
88
88
88
ENDCHAR
STARTCHAR uni04BB
ENCODING 1211
SWIDTH 600 0
DWIDTH 7 0
BBX 5 8 1 1
BITMAP
80
80
80
B0
98
88
88
88
ENDCHAR
STARTCHAR uni04C0
ENCODING 1216
SWIDTH 600 0
DWIDTH 7 0
BBX 5 8 1 0
BITMAP
F8
20
20
20
20
20
20
F0
ENDCHAR
STARTCHAR uni04C1
ENCODING 1217
SWIDTH 600 0
DWIDTH 7 0
BBX 6 11 0 0
BITMAP
08
38
00
94
D4
54
78
54
D4
94
84
ENDCHAR
STARTCHAR uni04C2
ENCODING 1218
SWIDTH 600 0
DWIDTH 7 0
BBX 6 9 0 0
BITMAP
08
38
00
14
54
78
7C
D4
84
ENDCHAR
STARTCHAR uni04CF
ENCODING 1231
SWIDTH 600 0
DWIDTH 7 0
BBX 5 8 1 1
BITMAP
F8
20
20
20
20
20
20
F0
ENDCHAR
STARTCHAR uni04D0
ENCODING 1232
SWIDTH 600 0
DWIDTH 7 0
BBX 6 11 0 0
BITMAP
08
38
10
30
38
28
48
7C
4C
C4
84
ENDCHAR
STARTCHAR uni04D1
ENCODING 1233
SWIDTH 600 0
DWIDTH 7 0
BBX 5 9 0 0
BITMAP
50
70
00
70
98
78
D8
D8
68
ENDCHAR
STARTCHAR uni04D2
ENCODING 1234
SWIDTH 600 0
DWIDTH 7 0
BBX 6 10 0 1
BITMAP
68
00
30
30
28
68
48
7C
44
84
ENDCHAR
STARTCHAR uni04D3
ENCODING 1235
SWIDTH 600 0
DWIDTH 7 0
BBX 5 8 0 1
BITMAP
50
00
00
70
08
78
88
F8
ENDCHAR
STARTCHAR uni04D4
ENCODING 1236
SWIDTH 600 0
DWIDTH 7 0
BBX 6 8 0 0
BITMAP
3C
30
50
5C
50
F0
90
9C
ENDCHAR
STARTCHAR uni04D5
ENCODING 1237
SWIDTH 600 0
DWIDTH 7 0
BBX 6 6 0 0
BITMAP
7C
94
7C
90
B4
48
ENDCHAR
STARTCHAR uni04D6
ENCODING 1238
SWIDTH 600 0
DWIDTH 7 0
BBX 5 11 1 0
BITMAP
10
70
20
F0
80
80
F8
80
80
C0
F0
ENDCHAR
STARTCHAR uni04D7
ENCODING 1239
SWIDTH 600 0
DWIDTH 7 0
BBX 5 9 0 0
BITMAP
40
70
00
70
48
F8
C0
48
30
ENDCHAR
STARTCHAR uni04D8
ENCODING 1240
SWIDTH 600 0
DWIDTH 7 0
BBX 6 8 0 0
BITMAP
70
C8
0C
0C
FC
88
48
70
ENDCHAR
STARTCHAR uni04D9
ENCODING 1241
SWIDTH 600 0
DWIDTH 7 0
BBX 6 6 0 0
BITMAP
70
08
FC
C8
58
30
ENDCHAR
STARTCHAR uni04DC
ENCODING 1244
SWIDTH 600 0
DWIDTH 7 0
BBX 6 10 0 1
BITMAP
68
00
84
D4
54
78
7C
54
94
94
ENDCHAR
STARTCHAR uni04DD
ENCODING 1245
SWIDTH 600 0
DWIDTH 7 0
BBX 6 8 0 1
BITMAP
68
00
00
D4
54
78
54
94
ENDCHAR
STARTCHAR uni04DE
ENCODING 1246
SWIDTH 600 0
DWIDTH 7 0
BBX 5 10 0 1
BITMAP
50
00
70
98
08
30
18
08
88
70
ENDCHAR
STARTCHAR uni04DF
ENCODING 1247
SWIDTH 600 0
DWIDTH 7 0
BBX 5 8 0 1
BITMAP
58
00
00
F8
08
70
08
F8
ENDCHAR
STARTCHAR uni04E2
ENCODING 1250
SWIDTH 600 0
DWIDTH 7 0
BBX 5 10 0 0
BITMAP
78
00
88
98
98
A8
E8
C8
C8
88
ENDCHAR
STARTCHAR uni04E3
ENCODING 1251
SWIDTH 600 0
DWIDTH 7 0
BBX 5 8 1 0
BITMAP
70
00
90
98
B8
E8
C8
80
ENDCHAR
STARTCHAR uni04E4
ENCODING 1252
SWIDTH 600 0
DWIDTH 7 0
BBX 5 10 0 1
BITMAP
58
00
88
88
98
98
A8
E8
C8
C8
ENDCHAR
STARTCHAR uni04E5
ENCODING 1253
SWIDTH 600 0
DWIDTH 7 0
BBX 5 8 1 1
BITMAP
D0
00
00
98
B8
A8
C8
C8
ENDCHAR
STARTCHAR uni04E6
ENCODING 1254
SWIDTH 600 0
DWIDTH 7 0
BBX 6 10 0 1
BITMAP
58
00
70
48
88
8C
8C
8C
C8
70
ENDCHAR
STARTCHAR uni04E7
ENCODING 1255
SWIDTH 600 0
DWIDTH 7 0
BBX 6 8 0 1
BITMAP
58
00
00
78
88
8C
88
78
ENDCHAR
STARTCHAR uni04E8
ENCODING 1256
SWIDTH 600 0
DWIDTH 7 0
BBX 6 8 0 0
BITMAP
70
C8
8C
FC
8C
88
48
70
ENDCHAR
STARTCHAR uni04E9
ENCODING 1257
SWIDTH 600 0
DWIDTH 7 0
BBX 6 6 0 0
BITMAP
70
C8
FC
C8
58
30
ENDCHAR
STARTCHAR uni04EE
ENCODING 1262
SWIDTH 600 0
DWIDTH 7 0
BBX 6 10 0 0
BITMAP
78
00
8C
C8
48
70
30
30
20
60
ENDCHAR
STARTCHAR uni04EF
ENCODING 1263
SWIDTH 600 0
DWIDTH 7 0
BBX 5 10 0 -1
BITMAP
78
00
88
C8
48
50
30
30
20
60
ENDCHAR
STARTCHAR uni04F0
ENCODING 1264
SWIDTH 600 0
DWIDTH 7 0
BBX 6 10 0 1
BITMAP
58
00
84
C8
48
58
30
30
30
60
ENDCHAR
STARTCHAR uni04F1
ENCODING 1265
SWIDTH 600 0
DWIDTH 7 0
BBX 5 11 0 -2
BITMAP
58
00
00
88
48
58
70
30
20
20
40
ENDCHAR
STARTCHAR uni04F2
ENCODING 1266
SWIDTH 600 0
DWIDTH 7 0
BBX 6 11 0 0
BITMAP
28
18
00
8C
C8
48
70
30
30
20
40
ENDCHAR
STARTCHAR uni04F3
ENCODING 1267
SWIDTH 600 0
DWIDTH 7 0
BBX 5 11 0 -2
BITMAP
28
10
00
88
C8
48
50
30
30
20
60
ENDCHAR
STARTCHAR uni04F4
ENCODING 1268
SWIDTH 600 0
DWIDTH 7 0
BBX 5 10 0 1
BITMAP
50
00
88
88
88
88
78
08
08
08
ENDCHAR
STARTCHAR uni04F5
ENCODING 1269
SWIDTH 600 0
DWIDTH 7 0
BBX 5 8 0 1
BITMAP
50
00
00
88
88
F8
08
08
ENDCHAR
STARTCHAR uni04F8
ENCODING 1272
SWIDTH 600 0
DWIDTH 7 0
BBX 6 10 0 1
BITMAP
58
00
80
84
84
C4
A4
94
94
E4
ENDCHAR
STARTCHAR uni04F9
ENCODING 1273
SWIDTH 600 0
DWIDTH 7 0
BBX 6 8 0 1
BITMAP
58
00
00
84
84
E4
94
E4
ENDCHAR
STARTCHAR uni0E3F
ENCODING 3647
SWIDTH 600 0
DWIDTH 7 0
BBX 5 10 1 0
BITMAP
20
E0
B8
A8
F0
F0
A8
A8
F0
20
ENDCHAR
STARTCHAR Wgrave
ENCODING 7808
SWIDTH 600 0
DWIDTH 7 0
BBX 6 11 0 0
BITMAP
20
00
00
84
84
B4
B4
A4
EC
EC
40
ENDCHAR
STARTCHAR wgrave
ENCODING 7809
SWIDTH 600 0
DWIDTH 7 0
BBX 6 9 0 0
BITMAP
20
00
00
94
B4
B4
EC
68
48
ENDCHAR
STARTCHAR Wacute
ENCODING 7810
SWIDTH 600 0
DWIDTH 7 0
BBX 6 11 0 0
BITMAP
10
10
00
84
84
B4
B4
A4
EC
EC
40
ENDCHAR
STARTCHAR wacute
ENCODING 7811
SWIDTH 600 0
DWIDTH 7 0
BBX 6 9 0 0
BITMAP
10
10
00
94
B4
B4
EC
68
48
ENDCHAR
STARTCHAR Wdieresis
ENCODING 7812
SWIDTH 600 0
DWIDTH 7 0
BBX 6 10 0 1
BITMAP
68
00
84
84
94
B4
B4
EC
EC
4C
ENDCHAR
STARTCHAR wdieresis
ENCODING 7813
SWIDTH 600 0
DWIDTH 7 0
BBX 6 8 0 1
BITMAP
68
00
00
B4
B4
84
6C
6C
ENDCHAR
STARTCHAR uni1E9E
ENCODING 7838
SWIDTH 600 0
DWIDTH 7 0
BBX 6 8 0 0
BITMAP
FC
88
90
98
8C
84
8C
B8
ENDCHAR
STARTCHAR uni1EA0
ENCODING 7840
SWIDTH 600 0
DWIDTH 7 0
BBX 6 10 0 -2
BITMAP
30
38
28
68
68
7C
C4
84
10
10
ENDCHAR
STARTCHAR uni1EA1
ENCODING 7841
SWIDTH 600 0
DWIDTH 7 0
BBX 5 7 0 -1
BITMAP
70
18
78
C8
D8
60
20
ENDCHAR
STARTCHAR uni1EA2
ENCODING 7842
SWIDTH 600 0
DWIDTH 7 0
BBX 6 11 0 0
BITMAP
30
10
00
30
38
28
48
7C
4C
C4
84
ENDCHAR
STARTCHAR uni1EA3
ENCODING 7843
SWIDTH 600 0
DWIDTH 7 0
BBX 5 9 0 0
BITMAP
70
10
00
70
98
78
D8
D8
68
ENDCHAR
STARTCHAR uni1EA4
ENCODING 7844
SWIDTH 600 0
DWIDTH 7 0
BBX 6 12 0 0
BITMAP
04
1C
38
00
30
38
28
68
48
7C
C4
84
ENDCHAR
STARTCHAR uni1EA5
ENCODING 7845
SWIDTH 600 0
DWIDTH 7 0
BBX 6 10 0 1
BITMAP
04
28
70
00
00
F8
08
78
88
78
ENDCHAR
STARTCHAR uni1EA6
ENCODING 7846
SWIDTH 600 0
DWIDTH 7 0
BBX 6 12 0 0
BITMAP
80
50
38
00
30
38
28
68
48
7C
C4
84
ENDCHAR
STARTCHAR uni1EA7
ENCODING 7847
SWIDTH 600 0
DWIDTH 7 0
BBX 6 10 0 1
BITMAP
80
40
38
00
00
78
0C
7C
CC
7C
ENDCHAR
STARTCHAR uni1EA8
ENCODING 7848
SWIDTH 600 0
DWIDTH 7 0
BBX 6 12 0 1
BITMAP
0C
04
38
28
00
30
38
28
48
7C
44
C4
ENDCHAR
STARTCHAR uni1EA9
ENCODING 7849
SWIDTH 600 0
DWIDTH 7 0
BBX 5 11 0 0
BITMAP
18
08
30
50
00
70
18
78
D8
D8
60
ENDCHAR
STARTCHAR uni1EAA
ENCODING 7850
SWIDTH 600 0
DWIDTH 7 0
BBX 6 11 0 1
BITMAP
38
10
28
00
30
38
28
48
7C
4C
C4
ENDCHAR
STARTCHAR uni1EAB
ENCODING 7851
SWIDTH 600 0
DWIDTH 7 0
BBX 5 10 0 1
BITMAP
70
00
70
40
00
F8
08
78
88
78
ENDCHAR
STARTCHAR uni1EAC
ENCODING 7852
SWIDTH 600 0
DWIDTH 7 0
BBX 6 12 0 -1
BITMAP
30
38
00
30
38
28
48
7C
4C
C4
84
10
ENDCHAR
STARTCHAR uni1EAD
ENCODING 7853
SWIDTH 600 0
DWIDTH 7 0
BBX 5 10 0 -1
BITMAP
20
50
00
70
98
78
D8
D8
68
20
ENDCHAR
STARTCHAR uni1EAE
ENCODING 7854
SWIDTH 600 0
DWIDTH 7 0
BBX 6 12 0 0
BITMAP
10
10
68
30
30
38
28
68
48
7C
C4
84
ENDCHAR
STARTCHAR uni1EAF
ENCODING 7855
SWIDTH 600 0
DWIDTH 7 0
BBX 5 10 0 1
BITMAP
10
20
50
30
00
F8
08
78
88
78
ENDCHAR
STARTCHAR uni1EB0
ENCODING 7856
SWIDTH 600 0
DWIDTH 7 0
BBX 6 12 0 0
BITMAP
20
10
68
30
30
38
28
68
48
7C
C4
84
ENDCHAR
STARTCHAR uni1EB1
ENCODING 7857
SWIDTH 600 0
DWIDTH 7 0
BBX 5 10 0 1
BITMAP
20
20
50
30
00
F8
08
78
88
78
ENDCHAR
STARTCHAR uni1EB2
ENCODING 7858
SWIDTH 600 0
DWIDTH 7 0
BBX 6 12 0 0
BITMAP
30
10
68
30
30
38
28
68
48
7C
C4
84
ENDCHAR
STARTCHAR uni1EB3
ENCODING 7859
SWIDTH 600 0
DWIDTH 7 0
BBX 5 10 0 1
BITMAP
70
20
50
30
00
F8
08
78
88
78
ENDCHAR
STARTCHAR uni1EB4
ENCODING 7860
SWIDTH 600 0
DWIDTH 7 0
BBX 6 12 0 0
BITMAP
38
00
68
30
30
38
28
68
48
7C
C4
84
ENDCHAR
STARTCHAR uni1EB5
ENCODING 7861
SWIDTH 600 0
DWIDTH 7 0
BBX 5 10 0 1
BITMAP
70
00
50
30
00
F8
08
78
88
78
ENDCHAR
STARTCHAR uni1EB6
ENCODING 7862
SWIDTH 600 0
DWIDTH 7 0
BBX 6 12 0 -1
BITMAP
48
38
10
30
38
28
48
7C
4C
C4
84
10
ENDCHAR
STARTCHAR uni1EB7
ENCODING 7863
SWIDTH 600 0
DWIDTH 7 0
BBX 5 10 0 -1
BITMAP
40
70
00
70
98
78
D8
D8
68
20
ENDCHAR
STARTCHAR uni1EB8
ENCODING 7864
SWIDTH 600 0
DWIDTH 7 0
BBX 5 10 1 -2
BITMAP
F8
80
80
F0
80
80
80
F0
20
20
ENDCHAR
STARTCHAR uni1EB9
ENCODING 7865
SWIDTH 600 0
DWIDTH 7 0
BBX 6 7 0 -1
BITMAP
70
C8
FC
C0
58
30
30
ENDCHAR
STARTCHAR uni1EBA
ENCODING 7866
SWIDTH 600 0
DWIDTH 7 0
BBX 5 11 1 0
BITMAP
60
00
00
F0
80
80
F8
80
80
C0
F0
ENDCHAR
STARTCHAR uni1EBB
ENCODING 7867
SWIDTH 600 0
DWIDTH 7 0
BBX 5 9 0 0
BITMAP
30
10
00
70
48
F8
C0
48
30
ENDCHAR
STARTCHAR uni1EBC
ENCODING 7868
SWIDTH 600 0
DWIDTH 7 0
BBX 4 10 1 1
BITMAP
70
00
F0
C0
80
F0
C0
80
80
F0
ENDCHAR
STARTCHAR uni1EBD
ENCODING 7869
SWIDTH 600 0
DWIDTH 7 0
BBX 5 8 0 0
BITMAP
70
00
70
48
C8
F8
48
30
ENDCHAR
STARTCHAR uni1EBE
ENCODING 7870
SWIDTH 600 0
DWIDTH 7 0
BBX 5 12 1 0
BITMAP
08
28
70
00
F8
80
80
F0
C0
80
80
F8
ENDCHAR
STARTCHAR uni1EBF
ENCODING 7871
SWIDTH 600 0
DWIDTH 7 0
BBX 6 10 0 1
BITMAP
04
08
70
00
00
78
88
F8
C8
78
ENDCHAR
STARTCHAR uni1EC0
ENCODING 7872
SWIDTH 600 0
DWIDTH 7 0
BBX 5 12 0 0
BITMAP
80
40
70
00
78
C0
C0
F8
C0
C0
C0
78
ENDCHAR
STARTCHAR uni1EC1
ENCODING 7873
SWIDTH 600 0
DWIDTH 7 0
BBX 6 10 0 1
BITMAP
80
50
38
00
00
78
44
FC
40
38
ENDCHAR
STARTCHAR uni1EC2
ENCODING 7874
SWIDTH 600 0
DWIDTH 7 0
BBX 5 12 1 1
BITMAP
18
08
70
50
00
F0
80
C0
F0
80
80
F0
ENDCHAR
STARTCHAR uni1EC3
ENCODING 7875
SWIDTH 600 0
DWIDTH 7 0
BBX 6 11 0 0
BITMAP
1C
08
30
40
00
70
C8
FC
C0
58
30
ENDCHAR
STARTCHAR uni1EC4
ENCODING 7876
SWIDTH 600 0
DWIDTH 7 0
BBX 4 11 1 1
BITMAP
70
30
50
00
F0
80
80
F0
80
80
C0
ENDCHAR
STARTCHAR uni1EC5
ENCODING 7877
SWIDTH 600 0
DWIDTH 7 0
BBX 5 10 0 1
BITMAP
70
00
30
40
00
78
88
F8
C8
78
ENDCHAR
STARTCHAR uni1EC6
ENCODING 7878
SWIDTH 600 0
DWIDTH 7 0
BBX 5 12 1 -1
BITMAP
60
50
00
F0
80
80
F8
80
80
C0
F0
20
ENDCHAR
STARTCHAR uni1EC7
ENCODING 7879
SWIDTH 600 0
DWIDTH 7 0
BBX 5 10 0 -1
BITMAP
30
50
00
70
48
F8
C0
48
30
30
ENDCHAR
STARTCHAR uni1EC8
ENCODING 7880
SWIDTH 600 0
DWIDTH 7 0
BBX 4 11 1 0
BITMAP
60
20
00
F0
20
20
20
20
20
20
F0
ENDCHAR
STARTCHAR uni1EC9
ENCODING 7881
SWIDTH 600 0
DWIDTH 7 0
BBX 5 9 1 0
BITMAP
30
10
00
E0
20
20
20
20
F8
ENDCHAR
STARTCHAR uni1ECA
ENCODING 7882
SWIDTH 600 0
DWIDTH 7 0
BBX 5 10 1 -2
BITMAP
F8
20
20
20
20
20
20
F0
20
20
ENDCHAR
STARTCHAR uni1ECB
ENCODING 7883
SWIDTH 600 0
DWIDTH 7 0
BBX 5 10 1 -1
BITMAP
20
00
00
E0
20
20
20
F8
00
20
ENDCHAR
STARTCHAR uni1ECC
ENCODING 7884
SWIDTH 600 0
DWIDTH 7 0
BBX 6 9 0 -1
BITMAP
70
C8
8C
8C
8C
88
48
70
30
ENDCHAR
STARTCHAR uni1ECD
ENCODING 7885
SWIDTH 600 0
DWIDTH 7 0
BBX 6 7 0 -1
BITMAP
70
C8
8C
88
58
30
30
ENDCHAR
STARTCHAR uni1ECE
ENCODING 7886
SWIDTH 600 0
DWIDTH 7 0
BBX 6 11 0 0
BITMAP
30
10
00
78
88
8C
8C
8C
88
58
30
ENDCHAR
STARTCHAR uni1ECF
ENCODING 7887
SWIDTH 600 0
DWIDTH 7 0
BBX 5 9 0 0
BITMAP
30
10
00
70
48
88
88
48
70
ENDCHAR
STARTCHAR uni1ED0
ENCODING 7888
SWIDTH 600 0
DWIDTH 7 0
BBX 6 12 0 0
BITMAP
04
08
70
00
70
C8
8C
8C
8C
8C
C8
70
ENDCHAR
STARTCHAR uni1ED1
ENCODING 7889
SWIDTH 600 0
DWIDTH 7 0
BBX 6 10 0 1
BITMAP
04
08
70
00
00
78
88
8C
C8
70
ENDCHAR
STARTCHAR uni1ED2
ENCODING 7890
SWIDTH 600 0
DWIDTH 7 0
BBX 6 12 0 0
BITMAP
80
50
38
00
38
4C
C4
C4
C4
C4
4C
38
ENDCHAR
STARTCHAR uni1ED3
ENCODING 7891
SWIDTH 600 0
DWIDTH 7 0
BBX 6 10 0 1
BITMAP
80
50
38
00
00
78
44
C4
4C
78
ENDCHAR
STARTCHAR uni1ED4
ENCODING 7892
SWIDTH 600 0
DWIDTH 7 0
BBX 6 12 0 1
BITMAP
1C
08
30
40
00
78
88
8C
8C
8C
88
78
ENDCHAR
STARTCHAR uni1ED5
ENCODING 7893
SWIDTH 600 0
DWIDTH 7 0
BBX 6 11 0 0
BITMAP
1C
08
30
40
00
70
C8
8C
88
58
30
ENDCHAR
STARTCHAR uni1ED6
ENCODING 7894
SWIDTH 600 0
DWIDTH 7 0
BBX 6 11 0 1
BITMAP
70
30
50
00
78
88
8C
8C
8C
88
58
ENDCHAR
STARTCHAR uni1ED7
ENCODING 7895
SWIDTH 600 0
DWIDTH 7 0
BBX 6 10 0 1
BITMAP
70
00
30
40
00
78
88
8C
C8
70
ENDCHAR
STARTCHAR uni1ED8
ENCODING 7896
SWIDTH 600 0
DWIDTH 7 0
BBX 6 12 0 -1
BITMAP
30
70
00
78
88
8C
8C
8C
88
58
30
30
ENDCHAR
STARTCHAR uni1ED9
ENCODING 7897
SWIDTH 600 0
DWIDTH 7 0
BBX 5 10 0 -1
BITMAP
30
70
00
70
48
88
88
48
70
30
ENDCHAR
STARTCHAR uni1EDA
ENCODING 7898
SWIDTH 600 0
DWIDTH 7 0
BBX 6 11 0 0
BITMAP
10
20
0C
78
88
8C
8C
8C
88
58
30
ENDCHAR
STARTCHAR uni1EDB
ENCODING 7899
SWIDTH 600 0
DWIDTH 7 0
BBX 6 9 0 0
BITMAP
10
20
00
7C
48
88
8C
48
70
ENDCHAR
STARTCHAR uni1EDC
ENCODING 7900
SWIDTH 600 0
DWIDTH 7 0
BBX 6 11 0 0
BITMAP
20
20
0C
78
88
8C
8C
8C
88
58
30
ENDCHAR
STARTCHAR uni1EDD
ENCODING 7901
SWIDTH 600 0
DWIDTH 7 0
BBX 6 9 0 0
BITMAP
20
20
00
7C
48
88
8C
48
70
ENDCHAR
STARTCHAR uni1EDE
ENCODING 7902
SWIDTH 600 0
DWIDTH 7 0
BBX 6 11 0 0
BITMAP
30
10
0C
78
88
8C
8C
8C
88
58
30
ENDCHAR
STARTCHAR uni1EDF
ENCODING 7903
SWIDTH 600 0
DWIDTH 7 0
BBX 6 9 0 0
BITMAP
30
10
00
7C
48
88
8C
48
70
ENDCHAR
STARTCHAR uni1EE0
ENCODING 7904
SWIDTH 600 0
DWIDTH 7 0
BBX 6 10 0 1
BITMAP
70
00
7C
48
88
8C
8C
8C
C8
70
ENDCHAR
STARTCHAR uni1EE1
ENCODING 7905
SWIDTH 600 0
DWIDTH 7 0
BBX 6 8 0 0
BITMAP
70
00
7C
48
88
8C
48
70
ENDCHAR
STARTCHAR uni1EE2
ENCODING 7906
SWIDTH 600 0
DWIDTH 7 0
BBX 6 10 0 -1
BITMAP
04
78
C8
8C
8C
8C
88
48
70
30
ENDCHAR
STARTCHAR uni1EE3
ENCODING 7907
SWIDTH 600 0
DWIDTH 7 0
BBX 6 8 0 -1
BITMAP
04
78
C8
8C
8C
78
20
30
ENDCHAR
STARTCHAR uni1EE4
ENCODING 7908
SWIDTH 600 0
DWIDTH 7 0
BBX 6 9 0 -1
BITMAP
8C
8C
8C
8C
8C
88
48
70
30
ENDCHAR
STARTCHAR uni1EE5
ENCODING 7909
SWIDTH 600 0
DWIDTH 7 0
BBX 5 7 1 -1
BITMAP
88
88
88
88
D8
40
20
ENDCHAR
STARTCHAR uni1EE6
ENCODING 7910
SWIDTH 600 0
DWIDTH 7 0
BBX 6 11 0 0
BITMAP
30
10
00
8C
8C
8C
8C
88
88
58
30
ENDCHAR
STARTCHAR uni1EE7
ENCODING 7911
SWIDTH 600 0
DWIDTH 7 0
BBX 5 9 1 0
BITMAP
60
20
00
80
88
88
88
D8
60
ENDCHAR
STARTCHAR uni1EE8
ENCODING 7912
SWIDTH 600 0
DWIDTH 7 0
BBX 6 11 0 0
BITMAP
10
24
04
8C
8C
8C
8C
8C
88
58
30
ENDCHAR
STARTCHAR uni1EE9
ENCODING 7913
SWIDTH 600 0
DWIDTH 7 0
BBX 6 9 1 0
BITMAP
20
20
04
8C
88
88
88
D8
60
ENDCHAR
STARTCHAR uni1EEA
ENCODING 7914
SWIDTH 600 0
DWIDTH 7 0
BBX 6 11 0 0
BITMAP
20
24
04
8C
8C
8C
8C
8C
88
58
30
ENDCHAR
STARTCHAR uni1EEB
ENCODING 7915
SWIDTH 600 0
DWIDTH 7 0
BBX 6 9 1 0
BITMAP
40
20
04
8C
88
88
88
D8
60
ENDCHAR
STARTCHAR uni1EEC
ENCODING 7916
SWIDTH 600 0
DWIDTH 7 0
BBX 6 11 0 0
BITMAP
30
14
04
8C
8C
8C
8C
8C
88
58
30
ENDCHAR
STARTCHAR uni1EED
ENCODING 7917
SWIDTH 600 0
DWIDTH 7 0
BBX 6 9 1 0
BITMAP
60
20
04
8C
88
88
88
D8
60
ENDCHAR
STARTCHAR uni1EEE
ENCODING 7918
SWIDTH 600 0
DWIDTH 7 0
BBX 6 10 0 1
BITMAP
70
04
8C
8C
8C
8C
8C
88
C8
70
ENDCHAR
STARTCHAR uni1EEF
ENCODING 7919
SWIDTH 600 0
DWIDTH 7 0
BBX 6 8 1 0
BITMAP
70
04
8C
88
88
88
98
60
ENDCHAR
STARTCHAR uni1EF0
ENCODING 7920
SWIDTH 600 0
DWIDTH 7 0
BBX 6 11 0 -2
BITMAP
04
8C
8C
8C
8C
8C
88
88
78
00
30
ENDCHAR
STARTCHAR uni1EF1
ENCODING 7921
SWIDTH 600 0
DWIDTH 7 0
BBX 6 9 1 -2
BITMAP
04
8C
88
88
88
98
68
20
20
ENDCHAR
STARTCHAR Ygrave
ENCODING 7922
SWIDTH 600 0
DWIDTH 7 0
BBX 6 10 0 1
BITMAP
20
00
00
C4
4C
68
30
10
10
10
ENDCHAR
STARTCHAR ygrave
ENCODING 7923
SWIDTH 600 0
DWIDTH 7 0
BBX 5 11 0 -2
BITMAP
20
20
00
88
C8
48
50
30
30
20
60
ENDCHAR
STARTCHAR uni1EF4
ENCODING 7924
SWIDTH 600 0
DWIDTH 7 0
BBX 6 10 0 -2
BITMAP
C4
4C
68
38
30
10
10
10
10
10
ENDCHAR
STARTCHAR uni1EF5
ENCODING 7925
SWIDTH 600 0
DWIDTH 7 0
BBX 6 8 0 -2
BITMAP
88
48
48
70
30
20
2C
40
ENDCHAR
STARTCHAR uni1EF6
ENCODING 7926
SWIDTH 600 0
DWIDTH 7 0
BBX 6 10 0 1
BITMAP
30
10
00
C4
4C
68
30
10
10
10
ENDCHAR
STARTCHAR uni1EF7
ENCODING 7927
SWIDTH 600 0
DWIDTH 7 0
BBX 5 11 0 -2
BITMAP
30
10
00
88
C8
48
50
30
30
20
60
ENDCHAR
STARTCHAR uni1EF8
ENCODING 7928
SWIDTH 600 0
DWIDTH 7 0
BBX 6 10 0 1
BITMAP
38
00
84
4C
48
38
30
10
10
10
ENDCHAR
STARTCHAR uni1EF9
ENCODING 7929
SWIDTH 600 0
DWIDTH 7 0
BBX 5 10 0 -1
BITMAP
70
00
88
C8
48
50
30
30
20
60
ENDCHAR
STARTCHAR endash
ENCODING 8211
SWIDTH 600 0
DWIDTH 7 0
BBX 5 1 0 3
BITMAP
F8
ENDCHAR
STARTCHAR emdash
ENCODING 8212
SWIDTH 600 0
DWIDTH 7 0
BBX 6 1 0 3
BITMAP
FC
ENDCHAR
STARTCHAR quoteleft
ENCODING 8216
SWIDTH 600 0
DWIDTH 7 0
BBX 2 3 2 6
BITMAP
40
40
C0
ENDCHAR
STARTCHAR quoteright
ENCODING 8217
SWIDTH 600 0
DWIDTH 7 0
BBX 2 3 2 6
BITMAP
C0
C0
80
ENDCHAR
STARTCHAR quotesinglbase
ENCODING 8218
SWIDTH 600 0
DWIDTH 7 0
BBX 2 3 2 0
BITMAP
40
C0
80
ENDCHAR
STARTCHAR quotedblleft
ENCODING 8220
SWIDTH 600 0
DWIDTH 7 0
BBX 5 3 0 6
BITMAP
48
48
D8
ENDCHAR
STARTCHAR quotedblright
ENCODING 8221
SWIDTH 600 0
DWIDTH 7 0
BBX 5 3 1 6
BITMAP
D8
D0
90
ENDCHAR
STARTCHAR quotedblbase
ENCODING 8222
SWIDTH 600 0
DWIDTH 7 0
BBX 5 3 1 0
BITMAP
D8
D0
90
ENDCHAR
STARTCHAR dagger
ENCODING 8224
SWIDTH 600 0
DWIDTH 7 0
BBX 5 10 0 -1
BITMAP
20
20
20
F8
20
20
20
20
20
20
ENDCHAR
STARTCHAR daggerdbl
ENCODING 8225
SWIDTH 600 0
DWIDTH 7 0
BBX 5 10 0 -1
BITMAP
20
20
20
F8
20
20
20
F8
20
20
ENDCHAR
STARTCHAR bullet
ENCODING 8226
SWIDTH 600 0
DWIDTH 7 0
BBX 3 3 2 2
BITMAP
E0
E0
C0
ENDCHAR
STARTCHAR ellipsis
ENCODING 8230
SWIDTH 600 0
DWIDTH 7 0
BBX 6 1 0 1
BITMAP
AC
ENDCHAR
STARTCHAR perthousand
ENCODING 8240
SWIDTH 600 0
DWIDTH 7 0
BBX 6 8 0 0
BITMAP
E0
A0
E0
30
20
7C
54
2C
ENDCHAR
STARTCHAR guilsinglleft
ENCODING 8249
SWIDTH 600 0
DWIDTH 7 0
BBX 3 4 2 1
BITMAP
40
80
40
20
ENDCHAR
STARTCHAR guilsinglright
ENCODING 8250
SWIDTH 600 0
DWIDTH 7 0
BBX 3 5 2 1
BITMAP
80
40
20
40
80
ENDCHAR
STARTCHAR fraction
ENCODING 8260
SWIDTH 600 0
DWIDTH 7 0
BBX 6 8 0 0
BITMAP
04
04
08
00
00
40
40
80
ENDCHAR
STARTCHAR uni2070
ENCODING 8304
SWIDTH 600 0
DWIDTH 7 0
BBX 4 4 1 5
BITMAP
60
80
90
60
ENDCHAR
STARTCHAR uni2074
ENCODING 8308
SWIDTH 600 0
DWIDTH 7 0
BBX 3 4 1 5
BITMAP
20
00
E0
20
ENDCHAR
STARTCHAR uni2075
ENCODING 8309
SWIDTH 600 0
DWIDTH 7 0
BBX 3 4 1 5
BITMAP
E0
40
20
E0
ENDCHAR
STARTCHAR uni2076
ENCODING 8310
SWIDTH 600 0
DWIDTH 7 0
BBX 3 4 2 5
BITMAP
40
C0
A0
E0
ENDCHAR
STARTCHAR uni2077
ENCODING 8311
SWIDTH 600 0
DWIDTH 7 0
BBX 3 4 2 5
BITMAP
E0
20
40
40
ENDCHAR
STARTCHAR uni2078
ENCODING 8312
SWIDTH 600 0
DWIDTH 7 0
BBX 3 4 1 5
BITMAP
60
60
80
60
ENDCHAR
STARTCHAR uni2079
ENCODING 8313
SWIDTH 600 0
DWIDTH 7 0
BBX 3 4 1 5
BITMAP
60
80
60
60
ENDCHAR
STARTCHAR uni2080
ENCODING 8320
SWIDTH 600 0
DWIDTH 7 0
BBX 4 4 1 1
BITMAP
60
80
90
60
ENDCHAR
STARTCHAR uni2081
ENCODING 8321
SWIDTH 600 0
DWIDTH 7 0
BBX 3 4 2 1
BITMAP
C0
40
40
E0
ENDCHAR
STARTCHAR uni2082
ENCODING 8322
SWIDTH 600 0
DWIDTH 7 0
BBX 3 4 2 1
BITMAP
E0
20
40
E0
ENDCHAR
STARTCHAR uni2083
ENCODING 8323
SWIDTH 600 0
DWIDTH 7 0
BBX 3 4 1 1
BITMAP
60
20
20
E0
ENDCHAR
STARTCHAR uni2084
ENCODING 8324
SWIDTH 600 0
DWIDTH 7 0
BBX 3 4 1 1
BITMAP
20
00
E0
20
ENDCHAR
STARTCHAR uni2085
ENCODING 8325
SWIDTH 600 0
DWIDTH 7 0
BBX 3 4 1 1
BITMAP
E0
40
20
E0
ENDCHAR
STARTCHAR uni2086
ENCODING 8326
SWIDTH 600 0
DWIDTH 7 0
BBX 3 4 2 1
BITMAP
40
C0
A0
E0
ENDCHAR
STARTCHAR uni2087
ENCODING 8327
SWIDTH 600 0
DWIDTH 7 0
BBX 3 4 2 1
BITMAP
E0
20
40
40
ENDCHAR
STARTCHAR uni2088
ENCODING 8328
SWIDTH 600 0
DWIDTH 7 0
BBX 3 4 1 1
BITMAP
60
60
80
60
ENDCHAR
STARTCHAR uni2089
ENCODING 8329
SWIDTH 600 0
DWIDTH 7 0
BBX 3 4 1 1
BITMAP
60
80
60
60
ENDCHAR
STARTCHAR uni20A1
ENCODING 8353
SWIDTH 600 0
DWIDTH 7 0
BBX 5 9 0 0
BITMAP
20
78
78
F0
F0
C0
C0
78
70
ENDCHAR
STARTCHAR uni20A4
ENCODING 8356
SWIDTH 600 0
DWIDTH 7 0
BBX 5 8 0 0
BITMAP
78
48
C0
F0
60
F0
C0
78
ENDCHAR
STARTCHAR uni20A6
ENCODING 8358
SWIDTH 600 0
DWIDTH 7 0
BBX 6 8 0 0
BITMAP
64
64
6C
DC
74
FC
5C
48
ENDCHAR
STARTCHAR uni20A8
ENCODING 8360
SWIDTH 600 0
DWIDTH 7 0
BBX 6 8 0 0
BITMAP
E0
A0
AC
E8
E8
AC
B4
98
ENDCHAR
STARTCHAR uni20A9
ENCODING 8361
SWIDTH 600 0
DWIDTH 7 0
BBX 6 8 0 0
BITMAP
C4
44
FC
7C
CC
4C
6C
68
ENDCHAR
STARTCHAR uni20AA
ENCODING 8362
SWIDTH 600 0
DWIDTH 7 0
BBX 6 8 0 0
BITMAP
E4
94
DC
DC
DC
DC
C8
B8
ENDCHAR
STARTCHAR uni20AB
ENCODING 8363
SWIDTH 600 0
DWIDTH 7 0
BBX 5 8 1 1
BITMAP
38
38
F8
98
98
98
78
F0
ENDCHAR
STARTCHAR Euro
ENCODING 8364
SWIDTH 600 0
DWIDTH 7 0
BBX 5 8 0 0
BITMAP
78
48
C0
F0
C0
F0
48
30
ENDCHAR
STARTCHAR uni20AD
ENCODING 8365
SWIDTH 600 0
DWIDTH 7 0
BBX 6 8 0 0
BITMAP
4C
48
50
FC
50
58
4C
44
ENDCHAR
STARTCHAR uni20AE
ENCODING 8366
SWIDTH 600 0
DWIDTH 7 0
BBX 6 8 0 0
BITMAP
FC
10
10
30
78
30
70
10
ENDCHAR
STARTCHAR uni20B1
ENCODING 8369
SWIDTH 600 0
DWIDTH 7 0
BBX 6 8 0 0
BITMAP
78
4C
FC
FC
4C
78
40
40
ENDCHAR
STARTCHAR uni20B2
ENCODING 8370
SWIDTH 600 0
DWIDTH 7 0
BBX 6 9 0 0
BITMAP
10
70
D8
80
B0
BC
A8
68
30
ENDCHAR
STARTCHAR uni20B4
ENCODING 8372
SWIDTH 600 0
DWIDTH 7 0
BBX 6 8 0 0
BITMAP
38
08
FC
30
FC
40
68
38
ENDCHAR
STARTCHAR uni20B5
ENCODING 8373
SWIDTH 600 0
DWIDTH 7 0
BBX 5 9 0 0
BITMAP
10
70
58
90
A0
A0
A0
68
30
ENDCHAR
STARTCHAR uni20B8
ENCODING 8376
SWIDTH 600 0
DWIDTH 7 0
BBX 5 8 0 0
BITMAP
F8
00
F8
20
20
20
20
20
ENDCHAR
STARTCHAR uni20B9
ENCODING 8377
SWIDTH 600 0
DWIDTH 7 0
BBX 5 8 0 0
BITMAP
F8
10
F8
10
E0
20
10
08
ENDCHAR
STARTCHAR uni20BA
ENCODING 8378
SWIDTH 600 0
DWIDTH 7 0
BBX 6 8 0 0
BITMAP
40
70
60
F0
60
CC
48
70
ENDCHAR
STARTCHAR uni20BD
ENCODING 8381
SWIDTH 600 0
DWIDTH 7 0
BBX 6 8 0 0
BITMAP
F8
CC
CC
F8
C0
F0
C0
40
ENDCHAR
STARTCHAR uni20BF
ENCODING 8383
SWIDTH 600 0
DWIDTH 7 0
BBX 5 10 1 0
BITMAP
60
F0
98
88
90
F0
88
88
F0
60
ENDCHAR
STARTCHAR uni2113
ENCODING 8467
SWIDTH 600 0
DWIDTH 7 0
BBX 5 8 0 1
BITMAP
30
58
58
50
70
E0
48
78
ENDCHAR
STARTCHAR uni2116
ENCODING 8470
SWIDTH 600 0
DWIDTH 7 0
BBX 6 8 0 0
BITMAP
AC
B4
F4
EC
E8
60
60
20
ENDCHAR
STARTCHAR trademark
ENCODING 8482
SWIDTH 600 0
DWIDTH 7 0
BBX 6 3 0 6
BITMAP
F4
5C
54
ENDCHAR
STARTCHAR Omega
ENCODING 8486
SWIDTH 600 0
DWIDTH 7 0
BBX 6 8 0 0
BITMAP
70
C8
8C
8C
8C
C8
50
D8
ENDCHAR
STARTCHAR uni212E
ENCODING 8494
SWIDTH 600 0
DWIDTH 7 0
BBX 6 6 0 1
BITMAP
44
C4
CC
C0
C0
44
ENDCHAR
STARTCHAR uni2150
ENCODING 8528
SWIDTH 600 0
DWIDTH 7 0
BBX 6 8 0 0
BITMAP
44
44
48
60
0C
44
40
88
ENDCHAR
STARTCHAR uni2151
ENCODING 8529
SWIDTH 600 0
DWIDTH 7 0
BBX 6 8 0 0
BITMAP
44
44
48
60
00
54
44
88
ENDCHAR
STARTCHAR uni2153
ENCODING 8531
SWIDTH 600 0
DWIDTH 7 0
BBX 6 8 0 0
BITMAP
44
44
48
60
0C
44
44
8C
ENDCHAR
STARTCHAR uni2154
ENCODING 8532
SWIDTH 600 0
DWIDTH 7 0
BBX 6 8 0 0
BITMAP
E4
24
48
C0
0C
44
44
8C
ENDCHAR
STARTCHAR uni2155
ENCODING 8533
SWIDTH 600 0
DWIDTH 7 0
BBX 6 8 0 0
BITMAP
44
44
48
60
08
40
44
84
ENDCHAR
STARTCHAR uni2156
ENCODING 8534
SWIDTH 600 0
DWIDTH 7 0
BBX 6 8 0 0
BITMAP
E4
24
48
C0
08
40
44
84
ENDCHAR
STARTCHAR uni2157
ENCODING 8535
SWIDTH 600 0
DWIDTH 7 0
BBX 6 8 0 0
BITMAP
E4
24
28
20
08
40
44
84
ENDCHAR
STARTCHAR uni2158
ENCODING 8536
SWIDTH 600 0
DWIDTH 7 0
BBX 6 8 0 0
BITMAP
64
24
E8
20
08
40
44
84
ENDCHAR
STARTCHAR uni2159
ENCODING 8537
SWIDTH 600 0
DWIDTH 7 0
BBX 6 8 0 0
BITMAP
44
44
48
60
08
48
54
8C
ENDCHAR
STARTCHAR uni215A
ENCODING 8538
SWIDTH 600 0
DWIDTH 7 0
BBX 6 8 0 0
BITMAP
04
04
28
00
08
48
54
8C
ENDCHAR
STARTCHAR uni215B
ENCODING 8539
SWIDTH 600 0
DWIDTH 7 0
BBX 6 8 0 0
BITMAP
44
44
48
60
0C
40
44
8C
ENDCHAR
STARTCHAR uni215C
ENCODING 8540
SWIDTH 600 0
DWIDTH 7 0
BBX 6 8 0 0
BITMAP
E4
24
28
20
0C
40
44
8C
ENDCHAR
STARTCHAR uni215D
ENCODING 8541
SWIDTH 600 0
DWIDTH 7 0
BBX 6 8 0 0
BITMAP
04
04
28
00
0C
40
44
8C
ENDCHAR
STARTCHAR uni215E
ENCODING 8542
SWIDTH 600 0
DWIDTH 7 0
BBX 6 8 0 0
BITMAP
E4
24
48
40
0C
40
44
8C
ENDCHAR
STARTCHAR uni2190
ENCODING 8592
SWIDTH 600 0
DWIDTH 7 0
BBX 6 4 0 2
BITMAP
20
60
FC
60
ENDCHAR
STARTCHAR uni2191
ENCODING 8593
SWIDTH 600 0
DWIDTH 7 0
BBX 4 8 1 0
BITMAP
20
70
A0
20
20
20
20
20
ENDCHAR
STARTCHAR uni2192
ENCODING 8594
SWIDTH 600 0
DWIDTH 7 0
BBX 6 4 0 2
BITMAP
10
08
FC
08
ENDCHAR
STARTCHAR uni2193
ENCODING 8595
SWIDTH 600 0
DWIDTH 7 0
BBX 5 8 1 0
BITMAP
20
20
20
20
20
B8
70
20
ENDCHAR
STARTCHAR uni2194
ENCODING 8596
SWIDTH 600 0
DWIDTH 7 0
BBX 6 4 0 2
BITMAP
28
4C
FC
48
ENDCHAR
STARTCHAR uni2195
ENCODING 8597
SWIDTH 600 0
DWIDTH 7 0
BBX 5 7 1 1
BITMAP
20
70
A0
20
20
B8
70
ENDCHAR
STARTCHAR uni2196
ENCODING 8598
SWIDTH 600 0
DWIDTH 7 0
BBX 5 5 0 2
BITMAP
F0
C0
A0
10
08
ENDCHAR
STARTCHAR uni2197
ENCODING 8599
SWIDTH 600 0
DWIDTH 7 0
BBX 6 6 0 1
BITMAP
3C
0C
14
20
40
80
ENDCHAR
STARTCHAR uni2198
ENCODING 8600
SWIDTH 600 0
DWIDTH 7 0
BBX 6 6 0 1
BITMAP
80
40
20
14
0C
3C
ENDCHAR
STARTCHAR uni2199
ENCODING 8601
SWIDTH 600 0
DWIDTH 7 0
BBX 5 5 0 1
BITMAP
08
10
A0
C0
F0
ENDCHAR
STARTCHAR uni21A9
ENCODING 8617
SWIDTH 600 0
DWIDTH 7 0
BBX 6 6 0 1
BITMAP
0C
04
64
FC
60
20
ENDCHAR
STARTCHAR uni21AA
ENCODING 8618
SWIDTH 600 0
DWIDTH 7 0
BBX 6 6 0 1
BITMAP
40
80
88
7C
08
10
ENDCHAR
STARTCHAR uni21B0
ENCODING 8624
SWIDTH 600 0
DWIDTH 7 0
BBX 6 7 0 1
BITMAP
20
40
FC
4C
0C
0C
0C
ENDCHAR
STARTCHAR uni21B1
ENCODING 8625
SWIDTH 600 0
DWIDTH 7 0
BBX 5 7 0 1
BITMAP
10
18
F8
98
80
80
80
ENDCHAR
STARTCHAR uni21B2
ENCODING 8626
SWIDTH 600 0
DWIDTH 7 0
BBX 6 8 0 0
BITMAP
0C
0C
0C
2C
4C
F8
40
20
ENDCHAR
STARTCHAR uni21B3
ENCODING 8627
SWIDTH 600 0
DWIDTH 7 0
BBX 5 8 0 0
BITMAP
80
80
80
90
98
F8
18
10
ENDCHAR
STARTCHAR uni21B6
ENCODING 8630
SWIDTH 600 0
DWIDTH 7 0
BBX 6 7 0 0
BITMAP
1C
24
20
20
F8
70
20
ENDCHAR
STARTCHAR uni21B7
ENCODING 8631
SWIDTH 600 0
DWIDTH 7 0
BBX 6 6 0 1
BITMAP
70
90
08
08
2C
18
ENDCHAR
STARTCHAR uni21BA
ENCODING 8634
SWIDTH 600 0
DWIDTH 7 0
BBX 6 8 0 0
BITMAP
1C
18
54
84
84
84
4C
38
ENDCHAR
STARTCHAR uni21BB
ENCODING 8635
SWIDTH 600 0
DWIDTH 7 0
BBX 6 8 0 0
BITMAP
70
38
54
84
84
84
4C
38
ENDCHAR
STARTCHAR uni21C4
ENCODING 8644
SWIDTH 600 0
DWIDTH 7 0
BBX 6 8 0 1
BITMAP
10
08
FC
08
20
7C
60
20
ENDCHAR
STARTCHAR uni21C6
ENCODING 8646
SWIDTH 600 0
DWIDTH 7 0
BBX 6 8 0 1
BITMAP
20
60
FC
60
18
FC
0C
18
ENDCHAR
STARTCHAR partialdiff
ENCODING 8706
SWIDTH 600 0
DWIDTH 7 0
BBX 6 8 0 0
BITMAP
60
10
78
C8
8C
88
48
70
ENDCHAR
STARTCHAR Delta
ENCODING 8710
SWIDTH 600 0
DWIDTH 7 0
BBX 6 8 0 0
BITMAP
30
70
50
58
48
88
8C
F8
ENDCHAR
STARTCHAR product
ENCODING 8719
SWIDTH 600 0
DWIDTH 7 0
BBX 5 8 1 0
BITMAP
F8
88
88
88
88
88
88
88
ENDCHAR
STARTCHAR summation
ENCODING 8721
SWIDTH 600 0
DWIDTH 7 0
BBX 5 10 0 -1
BITMAP
F8
C0
60
20
30
10
20
60
C0
F8
ENDCHAR
STARTCHAR minus
ENCODING 8722
SWIDTH 600 0
DWIDTH 7 0
BBX 5 1 0 3
BITMAP
F8
ENDCHAR
STARTCHAR radical
ENCODING 8730
SWIDTH 600 0
DWIDTH 7 0
BBX 6 8 0 0
BITMAP
04
04
C4
48
28
28
38
30
ENDCHAR
STARTCHAR infinity
ENCODING 8734
SWIDTH 600 0
DWIDTH 7 0
BBX 6 4 0 2
BITMAP
6C
94
94
6C
ENDCHAR
STARTCHAR integral
ENCODING 8747
SWIDTH 600 0
DWIDTH 7 0
BBX 5 11 0 -2
BITMAP
38
20
20
20
20
20
20
20
20
20
C0
ENDCHAR
STARTCHAR approxequal
ENCODING 8776
SWIDTH 600 0
DWIDTH 7 0
BBX 5 4 0 2
BITMAP
68
98
00
E8
ENDCHAR
STARTCHAR notequal
ENCODING 8800
SWIDTH 600 0
DWIDTH 7 0
BBX 5 5 0 2
BITMAP
10
F8
20
F8
40
ENDCHAR
STARTCHAR lessequal
ENCODING 8804
SWIDTH 600 0
DWIDTH 7 0
BBX 5 6 1 1
BITMAP
18
60
C0
70
08
F0
ENDCHAR
STARTCHAR greaterequal
ENCODING 8805
SWIDTH 600 0
DWIDTH 7 0
BBX 5 6 1 1
BITMAP
80
70
18
70
80
F0
ENDCHAR
STARTCHAR lozenge
ENCODING 9674
SWIDTH 600 0
DWIDTH 7 0
BBX 5 8 0 0
BITMAP
20
70
48
88
88
58
70
20
ENDCHAR
STARTCHAR uni2713
ENCODING 10003
SWIDTH 600 0
DWIDTH 7 0
BBX 6 8 0 0
BITMAP
04
04
0C
C8
48
50
30
30
ENDCHAR
STARTCHAR uni274C
ENCODING 10060
SWIDTH 600 0
DWIDTH 7 0
BBX 5 8 0 0
BITMAP
80
C8
50
30
30
50
C8
80
ENDCHAR
STARTCHAR uni2B0E
ENCODING 11022
SWIDTH 600 0
DWIDTH 7 0
BBX 6 5 0 2
BITMAP
F8
18
18
3C
18
ENDCHAR
STARTCHAR uni2B0F
ENCODING 11023
SWIDTH 600 0
DWIDTH 7 0
BBX 6 6 0 1
BITMAP
10
38
3C
18
18
F0
ENDCHAR
STARTCHAR uni2B10
ENCODING 11024
SWIDTH 600 0
DWIDTH 7 0
BBX 6 5 0 2
BITMAP
3C
20
20
F8
30
ENDCHAR
STARTCHAR uni2B11
ENCODING 11025
SWIDTH 600 0
DWIDTH 7 0
BBX 6 6 0 1
BITMAP
20
70
F8
20
30
3C
ENDCHAR
STARTCHAR uniEBE7
ENCODING 60391
SWIDTH 600 0
DWIDTH 7 0
BBX 5 10 1 -2
BITMAP
70
70
00
60
F0
A8
00
50
70
70
ENDCHAR
STARTCHAR dieresisacute
ENCODING 63191
SWIDTH 0 0
DWIDTH 0 0
BBX 3 4 -2 6
BITMAP
20
00
A0
80
ENDCHAR
STARTCHAR dieresisgrave
ENCODING 63192
SWIDTH 0 0
DWIDTH 0 0
BBX 3 4 -2 6
BITMAP
40
40
A0
80
ENDCHAR
STARTCHAR fi
ENCODING 64257
SWIDTH 600 0
DWIDTH 7 0
BBX 5 8 0 1
BITMAP
78
C0
C0
F8
C8
C8
C8
C8
ENDCHAR
STARTCHAR fl
ENCODING 64258
SWIDTH 600 0
DWIDTH 7 0
BBX 5 8 0 1
BITMAP
68
C8
C8
E8
C8
C8
C8
C8
ENDCHAR
STARTCHAR .notdef
ENCODING 64260
SWIDTH 600 0
DWIDTH 7 0
BBX 6 9 0 0
BITMAP
FC
84
84
84
84
84
84
84
FC
ENDCHAR
STARTCHAR a.alt01
ENCODING 64261
SWIDTH 600 0
DWIDTH 7 0
BBX 5 6 0 0
BITMAP
68
C8
88
88
C8
20
ENDCHAR
STARTCHAR g.alt01
ENCODING 64262
SWIDTH 600 0
DWIDTH 7 0
BBX 5 8 0 -2
BITMAP
68
C8
88
88
C8
28
18
70
ENDCHAR
STARTCHAR g.alt02
ENCODING 64263
SWIDTH 600 0
DWIDTH 7 0
BBX 6 8 0 -2
BITMAP
78
C8
58
70
40
7C
8C
78
ENDCHAR
STARTCHAR zero.alt01
ENCODING 64264
SWIDTH 600 0
DWIDTH 7 0
BBX 6 8 0 0
BITMAP
70
C8
8C
9C
EC
C8
48
70
ENDCHAR
STARTCHAR zero.alt02
ENCODING 64265
SWIDTH 600 0
DWIDTH 7 0
BBX 6 8 0 0
BITMAP
70
C8
8C
8C
8C
88
48
70
ENDCHAR
STARTCHAR aacute.alt01
ENCODING 64266
SWIDTH 600 0
DWIDTH 7 0
BBX 5 9 0 0
BITMAP
10
20
00
68
C8
88
88
C8
68
ENDCHAR
STARTCHAR abreve.alt01
ENCODING 64267
SWIDTH 600 0
DWIDTH 7 0
BBX 5 9 0 0
BITMAP
40
70
00
68
C8
88
88
C8
68
ENDCHAR
STARTCHAR acircumflex.alt01
ENCODING 64268
SWIDTH 600 0
DWIDTH 7 0
BBX 5 9 0 0
BITMAP
20
50
00
68
C8
88
88
C8
68
ENDCHAR
STARTCHAR adieresis.alt01
ENCODING 64269
SWIDTH 600 0
DWIDTH 7 0
BBX 5 8 0 1
BITMAP
58
00
00
68
88
88
88
68
ENDCHAR
STARTCHAR uni1EA1.alt01
ENCODING 64270
SWIDTH 600 0
DWIDTH 7 0
BBX 5 7 0 -1
BITMAP
68
C8
88
88
C8
20
20
ENDCHAR
STARTCHAR agrave.alt01
ENCODING 64271
SWIDTH 600 0
DWIDTH 7 0
BBX 5 9 0 0
BITMAP
20
20
00
68
C8
88
88
C8
68
ENDCHAR
STARTCHAR uni1EA3.alt01
ENCODING 64272
SWIDTH 600 0
DWIDTH 7 0
BBX 5 9 0 0
BITMAP
30
10
00
68
C8
88
88
C8
68
ENDCHAR
STARTCHAR amacron.alt01
ENCODING 64273
SWIDTH 600 0
DWIDTH 7 0
BBX 5 8 0 0
BITMAP
70
00
68
C8
88
88
C8
68
ENDCHAR
STARTCHAR aogonek.alt01
ENCODING 64274
SWIDTH 600 0
DWIDTH 7 0
BBX 5 8 0 -2
BITMAP
68
C8
88
88
C8
28
10
18
ENDCHAR
STARTCHAR aring.alt01
ENCODING 64275
SWIDTH 600 0
DWIDTH 7 0
BBX 5 10 0 0
BITMAP
20
50
70
00
68
C8
88
88
C8
28
ENDCHAR
STARTCHAR aringacute.alt01
ENCODING 64276
SWIDTH 600 0
DWIDTH 7 0
BBX 5 11 0 0
BITMAP
10
00
30
10
30
20
C8
88
88
C8
68
ENDCHAR
STARTCHAR atilde.alt01
ENCODING 64277
SWIDTH 600 0
DWIDTH 7 0
BBX 5 8 0 0
BITMAP
70
00
68
C8
88
88
C8
68
ENDCHAR
STARTCHAR uni1EAF.alt01
ENCODING 64278
SWIDTH 600 0
DWIDTH 7 0
BBX 5 10 0 1
BITMAP
10
20
50
30
00
E8
88
88
C8
68
ENDCHAR
STARTCHAR uni1EB7.alt01
ENCODING 64279
SWIDTH 600 0
DWIDTH 7 0
BBX 5 10 0 -1
BITMAP
40
70
00
68
C8
88
88
C8
68
20
ENDCHAR
STARTCHAR uni1EB1.alt01
ENCODING 64280
SWIDTH 600 0
DWIDTH 7 0
BBX 5 10 0 1
BITMAP
20
20
50
30
00
E8
88
88
C8
68
ENDCHAR
STARTCHAR uni1EB3.alt01
ENCODING 64281
SWIDTH 600 0
DWIDTH 7 0
BBX 5 10 0 1
BITMAP
70
20
50
30
00
E8
88
88
C8
68
ENDCHAR
STARTCHAR uni1EB5.alt01
ENCODING 64282
SWIDTH 600 0
DWIDTH 7 0
BBX 5 10 0 1
BITMAP
70
00
50
30
00
E8
88
88
C8
68
ENDCHAR
STARTCHAR uni1EA5.alt01
ENCODING 64283
SWIDTH 600 0
DWIDTH 7 0
BBX 6 10 0 1
BITMAP
04
28
70
40
00
E8
88
88
C8
68
ENDCHAR
STARTCHAR uni1EAD.alt01
ENCODING 64284
SWIDTH 600 0
DWIDTH 7 0
BBX 5 10 0 -1
BITMAP
20
50
00
68
C8
88
88
C8
68
20
ENDCHAR
STARTCHAR uni1EA7.alt01
ENCODING 64285
SWIDTH 600 0
DWIDTH 7 0
BBX 6 10 0 1
BITMAP
80
40
38
00
00
6C
C4
C4
4C
7C
ENDCHAR
STARTCHAR uni1EA9.alt01
ENCODING 64286
SWIDTH 600 0
DWIDTH 7 0
BBX 5 11 0 0
BITMAP
18
08
30
50
00
68
C8
88
88
C8
20
ENDCHAR
STARTCHAR uni1EAB.alt01
ENCODING 64287
SWIDTH 600 0
DWIDTH 7 0
BBX 5 10 0 1
BITMAP
70
00
70
40
00
E8
88
88
C8
68
ENDCHAR
STARTCHAR gbreve.alt01
ENCODING 64288
SWIDTH 600 0
DWIDTH 7 0
BBX 5 11 0 -2
BITMAP
40
70
00
68
C8
88
88
C8
68
08
70
ENDCHAR
STARTCHAR gcircumflex.alt01
ENCODING 64289
SWIDTH 600 0
DWIDTH 7 0
BBX 5 11 0 -2
BITMAP
20
50
00
68
C8
88
88
C8
68
08
70
ENDCHAR
STARTCHAR gcommaaccent.alt01
ENCODING 64290
SWIDTH 600 0
DWIDTH 7 0
BBX 5 11 0 -2
BITMAP
10
20
00
68
C8
88
88
C8
68
08
70
ENDCHAR
STARTCHAR gdotaccent.alt01
ENCODING 64291
SWIDTH 600 0
DWIDTH 7 0
BBX 5 10 0 -1
BITMAP
20
00
68
C8
88
88
C8
68
08
70
ENDCHAR
STARTCHAR germandbls.alt01
ENCODING 64292
SWIDTH 600 0
DWIDTH 7 0
BBX 6 8 0 1
BITMAP
38
48
4C
D8
50
5C
44
5C
ENDCHAR
STARTCHAR uni0430.alt01
ENCODING 64293
SWIDTH 600 0
DWIDTH 7 0
BBX 5 6 0 0
BITMAP
68
C8
88
88
C8
20
ENDCHAR
STARTCHAR uni04D3.alt01
ENCODING 64294
SWIDTH 600 0
DWIDTH 7 0
BBX 5 8 0 1
BITMAP
58
00
00
68
88
88
88
68
ENDCHAR
STARTCHAR uni04D1.alt01
ENCODING 64295
SWIDTH 600 0
DWIDTH 7 0
BBX 5 9 0 0
BITMAP
50
70
00
68
C8
88
88
C8
68
ENDCHAR
STARTCHAR zero.numr
ENCODING 64296
SWIDTH 600 0
DWIDTH 7 0
BBX 3 3 2 5
BITMAP
E0
A0
A0
ENDCHAR
STARTCHAR one.numr
ENCODING 64297
SWIDTH 600 0
DWIDTH 7 0
BBX 2 4 2 4
BITMAP
C0
40
40
40
ENDCHAR
STARTCHAR two.numr
ENCODING 64298
SWIDTH 600 0
DWIDTH 7 0
BBX 3 4 2 4
BITMAP
E0
00
00
80
ENDCHAR
STARTCHAR three.numr
ENCODING 64299
SWIDTH 600 0
DWIDTH 7 0
BBX 3 3 2 5
BITMAP
E0
20
20
ENDCHAR
STARTCHAR four.numr
ENCODING 64300
SWIDTH 600 0
DWIDTH 7 0
BBX 3 3 2 5
BITMAP
40
40
E0
ENDCHAR
STARTCHAR five.numr
ENCODING 64301
SWIDTH 600 0
DWIDTH 7 0
BBX 3 3 2 5
BITMAP
80
80
20
ENDCHAR
STARTCHAR six.numr
ENCODING 64302
SWIDTH 600 0
DWIDTH 7 0
BBX 3 3 2 5
BITMAP
40
80
A0
ENDCHAR
STARTCHAR seven.numr
ENCODING 64303
SWIDTH 600 0
DWIDTH 7 0
BBX 3 3 2 5
BITMAP
E0
00
40
ENDCHAR
STARTCHAR eight.numr
ENCODING 64304
SWIDTH 600 0
DWIDTH 7 0
BBX 3 3 2 5
BITMAP
E0
80
A0
ENDCHAR
STARTCHAR nine.numr
ENCODING 64305
SWIDTH 600 0
DWIDTH 7 0
BBX 3 4 2 4
BITMAP
E0
A0
60
40
ENDCHAR
STARTCHAR zero.dnom
ENCODING 64306
SWIDTH 600 0
DWIDTH 7 0
BBX 3 3 2 1
BITMAP
E0
A0
A0
ENDCHAR
STARTCHAR one.dnom
ENCODING 64307
SWIDTH 600 0
DWIDTH 7 0
BBX 2 4 2 0
BITMAP
C0
40
40
40
ENDCHAR
STARTCHAR two.dnom
ENCODING 64308
SWIDTH 600 0
DWIDTH 7 0
BBX 3 4 2 0
BITMAP
E0
00
00
80
ENDCHAR
STARTCHAR three.dnom
ENCODING 64309
SWIDTH 600 0
DWIDTH 7 0
BBX 3 3 2 1
BITMAP
E0
20
20
ENDCHAR
STARTCHAR four.dnom
ENCODING 64310
SWIDTH 600 0
DWIDTH 7 0
BBX 3 3 2 1
BITMAP
40
40
E0
ENDCHAR
STARTCHAR five.dnom
ENCODING 64311
SWIDTH 600 0
DWIDTH 7 0
BBX 3 3 2 1
BITMAP
80
80
20
ENDCHAR
STARTCHAR six.dnom
ENCODING 64312
SWIDTH 600 0
DWIDTH 7 0
BBX 3 3 2 1
BITMAP
40
80
A0
ENDCHAR
STARTCHAR seven.dnom
ENCODING 64313
SWIDTH 600 0
DWIDTH 7 0
BBX 3 3 2 1
BITMAP
E0
00
40
ENDCHAR
STARTCHAR eight.dnom
ENCODING 64314
SWIDTH 600 0
DWIDTH 7 0
BBX 3 3 2 1
BITMAP
E0
A0
A0
ENDCHAR
STARTCHAR nine.dnom
ENCODING 64315
SWIDTH 600 0
DWIDTH 7 0
BBX 3 4 2 0
BITMAP
E0
A0
60
40
ENDCHAR
STARTCHAR tilde.alt01
ENCODING 64316
SWIDTH 600 0
DWIDTH 7 0
BBX 3 1 1 7
BITMAP
E0
ENDCHAR
STARTCHAR breve.cyrl
ENCODING 64317
SWIDTH 600 0
DWIDTH 7 0
BBX 3 2 1 7
BITMAP
80
E0
ENDCHAR
STARTCHAR ringacute
ENCODING 64318
SWIDTH 600 0
DWIDTH 7 0
BBX 3 5 2 7
BITMAP
20
40
40
A0
E0
ENDCHAR
STARTCHAR breveacute
ENCODING 64319
SWIDTH 0 0
DWIDTH 0 0
BBX 4 4 -2 6
BITMAP
20
20
F0
60
ENDCHAR
STARTCHAR brevegrave
ENCODING 64320
SWIDTH 0 0
DWIDTH 0 0
BBX 4 4 -2 6
BITMAP
40
40
F0
60
ENDCHAR
STARTCHAR brevehook
ENCODING 64321
SWIDTH 0 0
DWIDTH 0 0
BBX 4 4 -2 6
BITMAP
60
20
F0
60
ENDCHAR
STARTCHAR brevetilde
ENCODING 64322
SWIDTH 0 0
DWIDTH 0 0
BBX 3 4 -2 6
BITMAP
E0
00
80
60
ENDCHAR
STARTCHAR dieresiscaron
ENCODING 64323
SWIDTH 0 0
DWIDTH 0 0
BBX 4 4 -2 7
BITMAP
80
60
00
B0
ENDCHAR
STARTCHAR circumflexacute
ENCODING 64324
SWIDTH 0 0
DWIDTH 0 0
BBX 5 3 -2 7
BITMAP
08
70
E0
ENDCHAR
STARTCHAR circumflexbreve
ENCODING 64325
SWIDTH 0 0
DWIDTH 0 0
BBX 4 4 -2 7
BITMAP
90
60
60
A0
ENDCHAR
STARTCHAR circumflexgrave
ENCODING 64326
SWIDTH 0 0
DWIDTH 0 0
BBX 5 3 -3 7
BITMAP
80
50
38
ENDCHAR
STARTCHAR circumflexhook
ENCODING 64327
SWIDTH 0 0
DWIDTH 0 0
BBX 5 4 -2 7
BITMAP
38
10
60
A0
ENDCHAR
STARTCHAR dieresismacron
ENCODING 64328
SWIDTH 0 0
DWIDTH 0 0
BBX 4 3 -2 6
BITMAP
60
80
B0
ENDCHAR
STARTCHAR circumflextilde
ENCODING 64329
SWIDTH 0 0
DWIDTH 0 0
BBX 4 4 -2 6
BITMAP
F0
20
E0
80
ENDCHAR
STARTCHAR tilde.case
ENCODING 64330
SWIDTH 600 0
DWIDTH 7 0
BBX 4 1 1 10
BITMAP
F0
ENDCHAR
STARTCHAR tilde.alt01.case
ENCODING 64331
SWIDTH 600 0
DWIDTH 7 0
BBX 3 1 1 10
BITMAP
E0
ENDCHAR
STARTCHAR macron.case
ENCODING 64332
SWIDTH 600 0
DWIDTH 7 0
BBX 3 1 2 9
BITMAP
E0
ENDCHAR
STARTCHAR dotaccent.case
ENCODING 64333
SWIDTH 600 0
DWIDTH 7 0
BBX 2 1 2 10
BITMAP
C0
ENDCHAR
STARTCHAR dieresis.case
ENCODING 64334
SWIDTH 600 0
DWIDTH 7 0
BBX 4 1 1 10
BITMAP
B0
ENDCHAR
STARTCHAR hungarumlaut.case
ENCODING 64335
SWIDTH 600 0
DWIDTH 7 0
BBX 3 2 2 9
BITMAP
C0
A0
ENDCHAR
STARTCHAR acute.case
ENCODING 64336
SWIDTH 600 0
DWIDTH 7 0
BBX 2 2 3 9
BITMAP
40
80
ENDCHAR
STARTCHAR grave.case
ENCODING 64337
SWIDTH 600 0
DWIDTH 7 0
BBX 2 2 2 9
BITMAP
80
40
ENDCHAR
STARTCHAR circumflex.case
ENCODING 64338
SWIDTH 600 0
DWIDTH 7 0
BBX 3 2 1 9
BITMAP
60
E0
ENDCHAR
STARTCHAR caron.case
ENCODING 64339
SWIDTH 600 0
DWIDTH 7 0
BBX 3 2 1 9
BITMAP
A0
60
ENDCHAR
STARTCHAR breve.case
ENCODING 64340
SWIDTH 600 0
DWIDTH 7 0
BBX 3 2 1 9
BITMAP
80
E0
ENDCHAR
STARTCHAR breve.cyrl_case
ENCODING 64341
SWIDTH 600 0
DWIDTH 7 0
BBX 3 2 1 9
BITMAP
80
E0
ENDCHAR
STARTCHAR ring.case
ENCODING 64342
SWIDTH 600 0
DWIDTH 7 0
BBX 3 3 2 9
BITMAP
E0
A0
E0
ENDCHAR
STARTCHAR ringacute.case
ENCODING 64343
SWIDTH 600 0
DWIDTH 7 0
BBX 3 5 2 9
BITMAP
40
40
40
A0
E0
ENDCHAR
STARTCHAR uni0309.case
ENCODING 64344
SWIDTH 0 0
DWIDTH 0 0
BBX 2 2 -1 9
BITMAP
C0
40
ENDCHAR
STARTCHAR breveacute.case
ENCODING 64345
SWIDTH 0 0
DWIDTH 0 0
BBX 4 4 -2 8
BITMAP
20
20
F0
60
ENDCHAR
STARTCHAR brevegrave.case
ENCODING 64346
SWIDTH 0 0
DWIDTH 0 0
BBX 4 4 -2 8
BITMAP
40
40
F0
60
ENDCHAR
STARTCHAR brevehook.case
ENCODING 64347
SWIDTH 0 0
DWIDTH 0 0
BBX 4 4 -2 8
BITMAP
60
20
F0
60
ENDCHAR
STARTCHAR brevetilde.case
ENCODING 64348
SWIDTH 0 0
DWIDTH 0 0
BBX 4 4 -2 8
BITMAP
F0
00
80
60
ENDCHAR
STARTCHAR dieresisacute.case
ENCODING 64349
SWIDTH 0 0
DWIDTH 0 0
BBX 3 4 -2 8
BITMAP
20
00
A0
80
ENDCHAR
STARTCHAR dieresiscaron.case
ENCODING 64350
SWIDTH 0 0
DWIDTH 0 0
BBX 4 4 -2 9
BITMAP
80
60
00
B0
ENDCHAR
STARTCHAR dieresisgrave.case
ENCODING 64351
SWIDTH 0 0
DWIDTH 0 0
BBX 3 4 -2 8
BITMAP
40
40
A0
80
ENDCHAR
STARTCHAR circumflexacute.case
ENCODING 64352
SWIDTH 0 0
DWIDTH 0 0
BBX 5 3 -2 9
BITMAP
08
70
E0
ENDCHAR
STARTCHAR circumflexbreve.case
ENCODING 64353
SWIDTH 0 0
DWIDTH 0 0
BBX 4 4 -2 9
BITMAP
90
60
60
A0
ENDCHAR
STARTCHAR circumflexgrave.case
ENCODING 64354
SWIDTH 0 0
DWIDTH 0 0
BBX 5 3 -3 9
BITMAP
80
50
38
ENDCHAR
STARTCHAR circumflexhook.case
ENCODING 64355
SWIDTH 0 0
DWIDTH 0 0
BBX 5 4 -2 9
BITMAP
38
10
60
A0
ENDCHAR
STARTCHAR dieresismacron.case
ENCODING 64356
SWIDTH 0 0
DWIDTH 0 0
BBX 4 3 -2 8
BITMAP
60
80
B0
ENDCHAR
STARTCHAR circumflextilde.case
ENCODING 64357
SWIDTH 0 0
DWIDTH 0 0
BBX 4 3 -2 9
BITMAP
F0
60
B0
ENDCHAR
ENDFONT
